<?xml version="1.0" encoding="utf-8"?>
<!-- Generator: Adobe Illustrator 23.0.3, SVG Export Plug-In . SVG Version: 6.00 Build 0)  -->
<svg version="1.1" id="OBJECTS" xmlns="http://www.w3.org/2000/svg" xmlns:xlink="http://www.w3.org/1999/xlink" x="0px" y="0px"
	 viewBox="0 0 415.12 230" style="enable-background:new 0 0 415.12 230;" xml:space="preserve">
<style type="text/css">
	.st0{opacity:0.35;fill:#FFFFFF;}
	.st1{fill:#FFFFFF;}
	.st2{fill:#474D68;}
	.st3{fill:url(#SVGID_1_);}
	.st4{opacity:0.5;fill:#006064;}
	.st5{fill:url(#SVGID_2_);}
	.st6{fill:url(#SVGID_3_);}
	.st7{fill:url(#SVGID_4_);}
	.st8{fill:#007DF9;}
	.st9{opacity:0.1;}
	.st10{fill:url(#SVGID_5_);}
	.st11{fill:url(#SVGID_6_);}
	.st12{fill:url(#SVGID_7_);}
	.st13{fill:url(#SVGID_8_);}
	.st14{fill:url(#SVGID_9_);}
	.st15{fill:url(#SVGID_10_);}
	.st16{fill:url(#SVGID_11_);}
	.st17{fill:#BBDEFB;}
	.st18{fill:#EF5350;}
	.st19{fill:#5C6BC0;}
	.st20{fill:#1E88E5;}
	.st21{fill:#26C6DA;}
	.st22{fill:#1565C0;}
	.st23{fill:url(#SVGID_12_);}
	.st24{fill:#BDBDBD;}
	.st25{fill:url(#SVGID_13_);}
	.st26{fill:#212121;}
	.st27{fill:#22253D;}
	.st28{fill:#2C223D;}
	.st29{fill:#FFCCBC;}
	.st30{fill:#0097A7;}
	.st31{fill:url(#SVGID_14_);}
	.st32{fill:#FFAB91;}
	.st33{fill:url(#SVGID_15_);}
	.st34{fill:#E0F7FA;}
	.st35{fill:url(#SVGID_16_);}
	.st36{fill:url(#SVGID_17_);}
	.st37{fill:url(#SVGID_18_);}
	.st38{fill:url(#SVGID_19_);}
	.st39{fill:#FFA000;}
	.st40{fill:url(#SVGID_20_);}
	.st41{fill:url(#SVGID_21_);}
	.st42{fill:url(#SVGID_22_);}
	.st43{fill:url(#SVGID_23_);}
	.st44{fill:#BF360C;}
	.st45{fill:#E57373;}
</style>
<g>
	<rect y="229.55" class="st0" width="415.12" height="0.45"/>
	<g>
		<rect x="92.89" y="5.64" class="st1" width="255.69" height="129.29"/>
		<path class="st2" d="M348.98,0H91.35c-2.6,0-4.71,2.11-4.71,4.71v0c0,2.6,2.11,4.71,4.71,4.71h257.63c2.6,0,4.71-2.11,4.71-4.71v0
			C353.7,2.11,351.59,0,348.98,0z"/>
		<path class="st2" d="M349.04,132.43H91.3c-2.57,0-4.66,2.09-4.66,4.66v0.11c0,2.57,2.09,4.66,4.66,4.66h257.74
			c2.57,0,4.66-2.09,4.66-4.66v-0.11C353.7,134.52,351.61,132.43,349.04,132.43z"/>
	</g>
	<g>
		<g>
			<g>
				<g>
					<g>
						
							<linearGradient id="SVGID_1_" gradientUnits="userSpaceOnUse" x1="-154.2826" y1="358.5709" x2="-158.2059" y2="369.5002" gradientTransform="matrix(-0.7685 -0.6398 -1.3712 1.6468 791.8668 -1114.9124)">
							<stop  offset="0" style="stop-color:#66BB6A"/>
							<stop  offset="1" style="stop-color:#66BB6A"/>
						</linearGradient>
						<path class="st3" d="M54.97,179.77c2.45-3.47,6.4-8.51,13.07-11.85c1.79-0.9,8.64-4.33,11.14-1.89
							c2.04,2,0.94,7.08-1.08,10.27c-2.28,3.6-4.47,2.84-6.67,6.53c-2.22,3.75-0.59,5.58-3.04,8.4c-1.36,1.56-3.05,2.32-6.45,3.83
							c-2.85,1.27-4.86,1.81-5.95,2.16c-8.24,2.7-11.54,10.54-12.82,9.85C41.49,206.16,46.13,192.28,54.97,179.77z"/>
					</g>
					<path class="st4" d="M51.95,194.23c0.15-0.18,0.3-0.36,0.45-0.54c-0.13-0.41-0.17-0.82-0.19-1.23
						c-0.01-0.47,0.02-0.95,0.17-1.43c0.18,0.47,0.23,0.94,0.25,1.42c0,0.35-0.01,0.71-0.08,1.06c1.22-1.43,2.52-2.79,3.9-4.08
						c-0.08-0.24-0.1-0.48-0.09-0.72c0.02-0.3,0.07-0.6,0.26-0.89c0.15,0.31,0.17,0.61,0.17,0.91c-0.01,0.15-0.03,0.31-0.07,0.46
						c0.88-0.81,1.78-1.6,2.71-2.35c0.07-0.06,0.14-0.11,0.21-0.17c-0.09-0.63-0.1-1.25-0.07-1.87c0.04-0.7,0.11-1.4,0.32-2.09
						c0.13,0.71,0.13,1.41,0.11,2.12c-0.04,0.59-0.1,1.17-0.23,1.75c1.25-1.01,2.48-2.04,3.64-3.13c0.64-0.6,1.26-1.22,1.87-1.85
						c-0.23-0.68-0.36-1.37-0.45-2.07c-0.09-0.75-0.15-1.5-0.08-2.28c0.26,0.73,0.4,1.47,0.5,2.22c0.08,0.68,0.13,1.37,0.09,2.06
						c0.58-0.6,1.14-1.22,1.7-1.84c1.16-1.3,2.25-2.67,3.27-4.08c1.04-1.4,2-2.86,2.91-4.35c-1.66,3.06-3.65,5.94-5.9,8.6
						c0.49-0.18,0.99-0.3,1.5-0.39c0.62-0.1,1.24-0.16,1.89-0.1c-0.59,0.27-1.2,0.41-1.82,0.51c-0.55,0.09-1.11,0.14-1.68,0.11
						c-1.1,1.31-2.29,2.54-3.52,3.72c-0.52,0.5-1.05,0.98-1.59,1.45c0.74-0.22,1.49-0.38,2.25-0.51c0.92-0.14,1.84-0.26,2.79-0.24
						c-0.89,0.31-1.8,0.5-2.72,0.66c-0.82,0.13-1.64,0.22-2.48,0.23c-0.73,0.63-1.47,1.25-2.21,1.86c-0.54,0.44-1.07,0.88-1.59,1.33
						c0.28-0.05,0.56-0.05,0.84-0.04c0.42,0.03,0.84,0.09,1.26,0.27c-0.43,0.15-0.85,0.16-1.28,0.15c-0.35-0.02-0.69-0.07-1.04-0.19
						c-0.72,0.63-1.43,1.27-2.11,1.93c-0.69,0.67-1.35,1.36-2.01,2.06c0.34-0.14,0.7-0.24,1.05-0.32c0.51-0.1,1.04-0.18,1.58-0.12
						c-0.48,0.27-0.98,0.42-1.5,0.54c-0.44,0.09-0.88,0.15-1.34,0.13c-0.46,0.5-0.91,1.01-1.36,1.53c-1.14,1.32-2.2,2.7-3.21,4.12
						c-1.02,1.42-1.97,2.88-2.87,4.38C47.77,199.86,49.72,196.93,51.95,194.23z"/>
				</g>
				<g>
					<g>
						
							<linearGradient id="SVGID_2_" gradientUnits="userSpaceOnUse" x1="2561.5659" y1="-684.947" x2="2551.1069" y2="-661.2188" gradientTransform="matrix(-0.6926 0.7213 1.5456 1.4843 2839.125 -654.3019)">
							<stop  offset="0" style="stop-color:#66BB6A"/>
							<stop  offset="1" style="stop-color:#66BB6A"/>
						</linearGradient>
						<path class="st5" d="M17.33,193.26c-1.78-2.83-4.29-2.22-6.96-4.57c-1.86-1.63-2.55-4.19-3.94-9.31
							c-1.77-6.53-2.69-9.83-1.1-11.24c1.9-1.69,5.8-0.04,10.17,1.8c3.41,1.44,9.68,4.18,14.21,10.74c1.47,2.12,1.67,3.08,3.36,6.7
							c5.93,12.69,11.81,18.42,10.65,19.58c-1.3,1.31-7.29-7.36-17.01-7.47c-2.41-0.03-5.71,0.46-7.56-1.63
							C17.89,196.44,18.59,195.26,17.33,193.26z"/>
					</g>
					<path class="st4" d="M31.54,197.29c-0.17-0.16-0.34-0.33-0.5-0.49c-0.42,0.1-0.83,0.11-1.24,0.1
						c-0.47-0.03-0.94-0.09-1.41-0.27c0.48-0.15,0.96-0.16,1.43-0.15c0.35,0.02,0.7,0.06,1.05,0.16c-1.34-1.32-2.6-2.72-3.79-4.18
						c-0.25,0.06-0.49,0.06-0.72,0.04c-0.3-0.04-0.59-0.12-0.87-0.32c0.32-0.13,0.62-0.13,0.92-0.1c0.15,0.02,0.3,0.05,0.45,0.1
						c-0.75-0.93-1.47-1.89-2.15-2.87c-0.05-0.07-0.1-0.15-0.15-0.22c-0.63,0.05-1.25,0.01-1.87-0.06c-0.7-0.09-1.39-0.21-2.07-0.46
						c0.72-0.08,1.42-0.03,2.12,0.04c0.58,0.08,1.16,0.18,1.73,0.36c-0.92-1.31-1.86-2.62-2.87-3.85c-0.55-0.68-1.13-1.34-1.72-2
						c-0.69,0.18-1.4,0.26-2.1,0.31c-0.75,0.04-1.51,0.04-2.28-0.08c0.74-0.21,1.5-0.29,2.25-0.34c0.69-0.03,1.37-0.04,2.07,0.05
						c-0.56-0.62-1.13-1.23-1.72-1.82c-1.22-1.25-2.5-2.43-3.83-3.55c-1.33-1.13-2.71-2.2-4.14-3.21c2.93,1.87,5.67,4.06,8.16,6.5
						c-0.15-0.5-0.23-1.01-0.28-1.52c-0.05-0.62-0.07-1.25,0.04-1.89c0.23,0.61,0.32,1.23,0.38,1.85c0.05,0.56,0.06,1.12-0.01,1.69
						c1.23,1.19,2.37,2.46,3.47,3.78c0.46,0.55,0.9,1.12,1.33,1.69c-0.17-0.75-0.27-1.51-0.35-2.28c-0.08-0.93-0.12-1.86-0.04-2.8
						c0.25,0.91,0.37,1.83,0.46,2.76c0.07,0.83,0.11,1.65,0.06,2.49c0.58,0.77,1.14,1.55,1.69,2.33c0.4,0.57,0.8,1.13,1.22,1.68
						c-0.03-0.28-0.01-0.57,0.01-0.84c0.06-0.42,0.15-0.83,0.36-1.23c0.12,0.44,0.1,0.86,0.06,1.28c-0.05,0.35-0.12,0.69-0.26,1.02
						c0.57,0.76,1.16,1.51,1.78,2.24c0.62,0.73,1.26,1.45,1.91,2.15c-0.12-0.35-0.19-0.71-0.25-1.07c-0.07-0.52-0.1-1.05-0.01-1.59
						c0.24,0.5,0.35,1.01,0.43,1.53c0.06,0.44,0.09,0.89,0.04,1.35c0.47,0.49,0.94,0.98,1.43,1.46c1.24,1.23,2.54,2.39,3.89,3.5
						c1.34,1.12,2.74,2.17,4.16,3.18C36.86,201.86,34.08,199.71,31.54,197.29z"/>
				</g>
				<g>
					<g>
						
							<linearGradient id="SVGID_3_" gradientUnits="userSpaceOnUse" x1="967.3618" y1="403.855" x2="988.9459" y2="344.4286" gradientTransform="matrix(-0.9742 -0.2257 -0.4838 2.0876 1214.7119 -834.7854)">
							<stop  offset="0" style="stop-color:#66BB6A"/>
							<stop  offset="1" style="stop-color:#66BB6A"/>
						</linearGradient>
						<path class="st6" d="M40.52,159.38c2.52-6.4,6.29-8.03,8.34-16.18c1.34-5.32,0.15-6.3,1.76-10.07
							c2.61-6.11,9.5-12.35,14.5-10.68c4.67,1.56,6.55,9.63,5.83,15.4c-0.89,7.19-5.43,7.72-5.48,14.16
							c-0.05,6.63,4.72,10.89,2.37,14.06c-1.11,1.5-2.44,0.9-4.05,2.9c-2.1,2.62-0.63,4.66-2.39,7.17c-2.03,2.9-4.82,1.35-7,4.09
							c-2.26,2.85-0.03,5.47-2.38,9.22c-0.2,0.33-0.44,0.52-1.07,1.33c0,0-1.57,2.01-2.91,4.12c-2.53,3.97-3.67,11.82-4.76,11.81
							c-1.29-0.01-2.01-10.92-3.09-27.32C39.2,164.28,39.42,162.2,40.52,159.38z"/>
					</g>
					<path class="st4" d="M46.6,182.13c0.08-0.36,0.17-0.72,0.26-1.09c-0.48-0.49-0.83-1.04-1.15-1.62
						c-0.35-0.67-0.65-1.36-0.77-2.16c0.59,0.54,1,1.18,1.37,1.84c0.26,0.5,0.49,1.01,0.65,1.57c0.71-2.91,1.59-5.78,2.63-8.6
						c-0.29-0.29-0.48-0.62-0.64-0.96c-0.19-0.44-0.33-0.91-0.28-1.45c0.44,0.33,0.69,0.75,0.89,1.18c0.09,0.23,0.18,0.46,0.23,0.71
						c0.67-1.79,1.39-3.55,2.17-5.29c0.06-0.13,0.12-0.26,0.17-0.39c-0.58-0.83-1.03-1.71-1.44-2.62c-0.44-1.03-0.84-2.08-1.05-3.21
						c0.7,0.92,1.21,1.92,1.67,2.94c0.37,0.86,0.7,1.74,0.93,2.67c1.05-2.34,2.07-4.68,2.94-7.08c0.48-1.31,0.92-2.64,1.33-3.98
						c-0.81-0.8-1.49-1.7-2.13-2.62c-0.67-1-1.3-2.03-1.75-3.18c0.9,0.85,1.62,1.81,2.31,2.8c0.61,0.91,1.17,1.85,1.61,2.87
						c0.39-1.27,0.76-2.55,1.1-3.84c0.71-2.69,1.29-5.41,1.74-8.15c0.47-2.74,0.79-5.51,1.02-8.29c-0.17,5.55-0.93,11.08-2.24,16.49
						c0.57-0.61,1.2-1.13,1.85-1.62c0.81-0.58,1.65-1.12,2.62-1.49c-0.65,0.8-1.42,1.44-2.22,2.04c-0.73,0.52-1.48,1-2.32,1.36
						c-0.63,2.65-1.44,5.26-2.34,7.83c-0.38,1.08-0.8,2.14-1.23,3.2c0.89-0.85,1.85-1.61,2.84-2.33c1.21-0.86,2.44-1.69,3.8-2.34
						c-1.04,1.09-2.21,2.01-3.4,2.89c-1.07,0.77-2.18,1.5-3.36,2.11c-0.58,1.42-1.19,2.83-1.81,4.22c-0.45,1.01-0.89,2.02-1.31,3.04
						c0.37-0.27,0.76-0.48,1.17-0.67c0.62-0.26,1.26-0.48,1.98-0.51c-0.51,0.52-1.1,0.84-1.71,1.13c-0.51,0.22-1.04,0.4-1.61,0.47
						c-0.58,1.41-1.12,2.83-1.62,4.27c-0.5,1.44-0.96,2.9-1.38,4.37c0.39-0.45,0.82-0.84,1.27-1.21c0.66-0.52,1.35-0.99,2.17-1.31
						c-0.48,0.73-1.1,1.3-1.75,1.84c-0.56,0.44-1.15,0.85-1.82,1.15c-0.29,1.05-0.58,2.1-0.84,3.15c-0.67,2.7-1.2,5.43-1.62,8.18
						c-0.44,2.75-0.73,5.52-0.95,8.29C44.69,193.15,45.37,187.58,46.6,182.13z"/>
				</g>
				<g>
					<g>
						
							<linearGradient id="SVGID_4_" gradientUnits="userSpaceOnUse" x1="-456.1483" y1="47.9204" x2="-482.4901" y2="115.1762" gradientTransform="matrix(0.8402 -0.5423 0.5423 0.8402 378.7094 -163.6981)">
							<stop  offset="0" style="stop-color:#66BB6A"/>
							<stop  offset="1" style="stop-color:#66BB6A"/>
						</linearGradient>
						<path class="st7" d="M15.39,163.97c-0.59-2.31,1.41-3.11,1.31-5.77c-0.13-3.43-3.52-3.66-4.4-7.12
							c-1.16-4.56,3.96-7.15,2.77-11.75c-0.75-2.89-3.01-2.75-4.37-5.55c-2.8-5.73,1.51-16.81,7.87-17.91
							c5.45-0.95,11.52,5.58,13.83,11.34c3.11,7.77-0.7,14.01,4.15,18.77c1.85,1.82,3.76,2.24,4.88,4.88
							c1.12,2.65-0.18,3.73,0.21,7.85c0.53,5.64,3.21,6.23,2.51,9.74c-0.67,3.33-3.29,3.85-3.31,7.18
							c-0.01,1.89,0.83,2.48,1.48,4.71c1.08,3.74,0.04,6.69-0.46,9.28c-1.76,9.23,2.91,17,1.78,17.43c-1.39,0.53-4.37-12.63-13.1-15
							c-2.04-0.55-4.85-0.64-5.71-2.55c-0.75-1.67,0.95-2.62,0.95-5.13c0.01-4.6-5.73-5.56-6.48-11.25
							c-0.25-1.89,0.28-2.52-0.39-4.24C17.86,166.23,15.94,166.1,15.39,163.97z"/>
					</g>
					<path class="st4" d="M33.43,182.1c-0.12-0.39-0.23-0.78-0.35-1.16c-0.71-0.2-1.35-0.53-1.96-0.9c-0.69-0.44-1.35-0.93-1.9-1.61
						c0.85,0.19,1.58,0.57,2.28,0.99c0.51,0.33,1.01,0.69,1.46,1.13c-0.91-3.13-1.63-6.31-2.18-9.52c-0.43-0.11-0.79-0.32-1.12-0.56
						c-0.41-0.32-0.8-0.68-1.05-1.22c0.59,0.07,1.05,0.33,1.48,0.63c0.21,0.16,0.41,0.34,0.6,0.54c-0.34-2.04-0.61-4.1-0.82-6.15
						c-0.02-0.15-0.03-0.31-0.05-0.46c-0.99-0.47-1.9-1.05-2.78-1.68c-0.98-0.73-1.92-1.5-2.73-2.45c1.15,0.48,2.17,1.15,3.16,1.86
						c0.82,0.61,1.6,1.26,2.32,2.01c-0.28-2.77-0.59-5.52-1.07-8.25c-0.26-1.5-0.56-2.99-0.9-4.47c-1.2-0.32-2.33-0.79-3.43-1.31
						c-1.17-0.58-2.32-1.21-3.37-2.05c1.3,0.31,2.51,0.83,3.69,1.39c1.06,0.53,2.1,1.11,3.07,1.83c-0.32-1.41-0.67-2.81-1.05-4.21
						c-0.78-2.91-1.72-5.79-2.78-8.62c-1.04-2.84-2.24-5.61-3.53-8.35c2.85,5.31,5.13,10.93,6.82,16.73
						c0.2-0.88,0.51-1.72,0.87-2.53c0.45-0.99,0.95-1.95,1.66-2.82c-0.18,1.11-0.56,2.13-0.99,3.12c-0.4,0.88-0.85,1.74-1.45,2.54
						c0.84,2.84,1.49,5.73,2.03,8.64c0.22,1.22,0.41,2.45,0.58,3.68c0.38-1.28,0.87-2.52,1.41-3.73c0.67-1.47,1.39-2.91,2.31-4.26
						c-0.39,1.59-0.99,3.09-1.64,4.56c-0.6,1.3-1.24,2.59-2.02,3.81c0.22,1.65,0.41,3.31,0.58,4.96c0.12,1.19,0.26,2.38,0.41,3.57
						c0.2-0.45,0.46-0.87,0.74-1.26c0.44-0.58,0.93-1.14,1.59-1.55c-0.2,0.76-0.58,1.39-1,1.99c-0.37,0.48-0.76,0.94-1.27,1.32
						c0.22,1.64,0.47,3.27,0.79,4.9c0.31,1.63,0.67,3.25,1.07,4.86c0.12-0.63,0.31-1.24,0.54-1.83c0.34-0.84,0.73-1.67,1.33-2.41
						c-0.06,0.95-0.33,1.82-0.65,2.67c-0.29,0.72-0.63,1.42-1.09,2.07c0.29,1.14,0.59,2.29,0.92,3.42c0.83,2.9,1.81,5.76,2.91,8.57
						c1.08,2.82,2.3,5.59,3.59,8.33C37.59,193.51,35.22,187.9,33.43,182.1z"/>
				</g>
			</g>
			<path class="st8" d="M60.33,204.06l-1.14,5.91l-3.3,17.18c-0.22,1.14-1.92,2-3.94,2H33.25c-1.86,0-3.46-0.73-3.87-1.75
				l-0.71-1.79l-8.46-21.3c-0.55-1.4,1.33-2.73,3.87-2.73h32.31C58.75,201.57,60.58,202.73,60.33,204.06z"/>
			<path class="st9" d="M59.19,209.97l-3.3,17.18c-0.22,1.14-1.92,2-3.94,2H33.25c-1.86,0-3.46-0.73-3.87-1.75l-0.71-1.79
				c4.03-0.7,11.13-2.25,18.07-5.74C53.98,216.21,57.55,212.19,59.19,209.97z"/>
		</g>
		<g>
			<g>
				<g>
					<g>
						
							<linearGradient id="SVGID_5_" gradientUnits="userSpaceOnUse" x1="-615.2697" y1="196.4787" x2="-619.0708" y2="207.0677" gradientTransform="matrix(0.7685 -0.6398 1.3712 1.6468 212.6853 -1114.9124)">
							<stop  offset="0" style="stop-color:#66BB6A"/>
							<stop  offset="1" style="stop-color:#66BB6A"/>
						</linearGradient>
						<path class="st10" d="M361.72,188.92c-2.38-3.36-6.2-8.24-12.66-11.48c-1.73-0.87-8.37-4.2-10.79-1.83
							c-1.98,1.94-0.91,6.86,1.04,9.95c2.21,3.49,4.33,2.75,6.46,6.33c2.16,3.63,0.57,5.41,2.95,8.14c1.31,1.51,2.96,2.25,6.25,3.71
							c2.76,1.23,4.71,1.75,5.77,2.1c7.98,2.61,11.18,10.21,12.42,9.54C374.78,214.49,370.29,201.04,361.72,188.92z"/>
					</g>
					<path class="st4" d="M364.65,202.93c-0.14-0.18-0.29-0.35-0.44-0.52c0.12-0.4,0.17-0.79,0.18-1.19
						c0.01-0.46-0.02-0.92-0.17-1.38c-0.17,0.45-0.22,0.91-0.24,1.37c0,0.34,0.01,0.69,0.08,1.03c-1.18-1.39-2.45-2.7-3.78-3.95
						c0.08-0.23,0.09-0.47,0.09-0.7c-0.02-0.29-0.07-0.58-0.25-0.86c-0.15,0.3-0.17,0.59-0.16,0.88c0.01,0.15,0.03,0.3,0.07,0.44
						c-0.85-0.79-1.73-1.55-2.62-2.28c-0.07-0.05-0.13-0.11-0.2-0.16c0.09-0.61,0.09-1.21,0.07-1.81c-0.04-0.68-0.11-1.36-0.31-2.03
						c-0.13,0.69-0.13,1.37-0.1,2.05c0.03,0.57,0.09,1.14,0.22,1.7c-1.21-0.98-2.4-1.97-3.53-3.04c-0.62-0.58-1.22-1.18-1.81-1.8
						c0.22-0.66,0.35-1.33,0.44-2.01c0.09-0.73,0.15-1.46,0.08-2.21c-0.26,0.71-0.39,1.43-0.49,2.15c-0.08,0.66-0.13,1.32-0.09,2
						c-0.56-0.58-1.11-1.18-1.65-1.79c-1.12-1.26-2.18-2.58-3.17-3.95c-1-1.36-1.94-2.77-2.82-4.22c1.61,2.96,3.53,5.76,5.72,8.34
						c-0.47-0.18-0.96-0.29-1.45-0.37c-0.6-0.09-1.2-0.16-1.83-0.1c0.57,0.26,1.17,0.39,1.76,0.5c0.54,0.08,1.08,0.14,1.63,0.11
						c1.07,1.27,2.22,2.46,3.41,3.61c0.5,0.48,1.02,0.95,1.54,1.4c-0.72-0.22-1.44-0.37-2.18-0.49c-0.89-0.14-1.79-0.25-2.7-0.23
						c0.86,0.3,1.75,0.49,2.64,0.64c0.79,0.12,1.59,0.22,2.4,0.23c0.7,0.61,1.42,1.21,2.14,1.8c0.52,0.42,1.03,0.85,1.54,1.29
						c-0.27-0.04-0.55-0.05-0.82-0.04c-0.41,0.03-0.82,0.08-1.22,0.27c0.42,0.14,0.83,0.16,1.24,0.14c0.34-0.02,0.67-0.07,1.01-0.19
						c0.7,0.61,1.38,1.23,2.05,1.87c0.67,0.65,1.31,1.31,1.94,2c-0.33-0.14-0.67-0.23-1.02-0.31c-0.5-0.1-1-0.17-1.53-0.12
						c0.46,0.26,0.95,0.41,1.45,0.52c0.43,0.08,0.86,0.14,1.3,0.13c0.45,0.49,0.89,0.98,1.32,1.48c1.1,1.28,2.14,2.62,3.11,4
						c0.99,1.37,1.91,2.79,2.79,4.24C368.7,208.38,366.81,205.55,364.65,202.93z"/>
				</g>
				<g>
					<g>
						
							<linearGradient id="SVGID_6_" gradientUnits="userSpaceOnUse" x1="2159.9927" y1="-483.5726" x2="2149.8594" y2="-460.5833" gradientTransform="matrix(0.6926 0.7213 -1.5456 1.4843 -1834.573 -654.3019)">
							<stop  offset="0" style="stop-color:#66BB6A"/>
							<stop  offset="1" style="stop-color:#66BB6A"/>
						</linearGradient>
						<path class="st11" d="M398.19,201.99c1.73-2.74,4.16-2.15,6.74-4.42c1.8-1.58,2.47-4.06,3.82-9.02
							c1.71-6.33,2.6-9.53,1.07-10.89c-1.84-1.63-5.62-0.04-9.85,1.75c-3.31,1.4-9.38,4.05-13.77,10.41
							c-1.42,2.06-1.62,2.98-3.26,6.5c-5.74,12.3-11.44,17.85-10.32,18.97c1.26,1.27,7.06-7.13,16.48-7.24
							c2.33-0.03,5.53,0.45,7.33-1.58C397.65,205.07,396.97,203.93,398.19,201.99z"/>
					</g>
					<path class="st4" d="M384.43,205.9c0.16-0.16,0.32-0.32,0.49-0.47c0.4,0.1,0.8,0.11,1.2,0.1c0.46-0.03,0.92-0.08,1.37-0.27
						c-0.47-0.14-0.93-0.16-1.38-0.14c-0.34,0.02-0.68,0.06-1.02,0.15c1.3-1.28,2.52-2.63,3.67-4.05c0.24,0.06,0.47,0.06,0.7,0.04
						c0.29-0.04,0.57-0.11,0.84-0.31c-0.31-0.13-0.6-0.13-0.89-0.1c-0.15,0.02-0.29,0.05-0.44,0.1c0.72-0.91,1.42-1.83,2.09-2.78
						c0.05-0.07,0.1-0.14,0.15-0.21c0.61,0.05,1.22,0.01,1.81-0.06c0.68-0.09,1.35-0.21,2-0.45c-0.7-0.08-1.38-0.03-2.05,0.04
						c-0.56,0.07-1.13,0.17-1.68,0.34c0.9-1.27,1.8-2.53,2.78-3.73c0.54-0.66,1.09-1.3,1.66-1.93c0.67,0.17,1.35,0.25,2.03,0.3
						c0.73,0.04,1.46,0.04,2.21-0.08c-0.72-0.2-1.45-0.28-2.18-0.33c-0.66-0.03-1.33-0.04-2,0.05c0.54-0.6,1.1-1.19,1.66-1.77
						c1.18-1.21,2.42-2.35,3.71-3.44c1.29-1.1,2.63-2.13,4.01-3.11c-2.84,1.81-5.5,3.93-7.91,6.3c0.14-0.49,0.22-0.98,0.27-1.47
						c0.05-0.6,0.07-1.21-0.03-1.83c-0.22,0.59-0.31,1.19-0.37,1.79c-0.04,0.54-0.06,1.08,0.01,1.63c-1.19,1.15-2.3,2.39-3.36,3.66
						c-0.44,0.54-0.87,1.08-1.29,1.64c0.17-0.73,0.26-1.47,0.33-2.21c0.08-0.9,0.12-1.8,0.04-2.71c-0.24,0.88-0.36,1.78-0.45,2.67
						c-0.07,0.8-0.1,1.6-0.06,2.41c-0.56,0.75-1.1,1.5-1.64,2.26c-0.38,0.55-0.78,1.09-1.18,1.63c0.02-0.28,0.01-0.55-0.01-0.82
						c-0.06-0.41-0.14-0.81-0.35-1.19c-0.11,0.43-0.1,0.84-0.06,1.24c0.05,0.33,0.12,0.67,0.26,0.99c-0.56,0.74-1.13,1.47-1.72,2.17
						c-0.6,0.71-1.22,1.4-1.85,2.08c0.11-0.34,0.19-0.69,0.24-1.04c0.06-0.5,0.1-1.01,0.01-1.54c-0.23,0.48-0.34,0.98-0.42,1.48
						c-0.05,0.43-0.08,0.86-0.04,1.31c-0.45,0.48-0.91,0.95-1.38,1.42c-1.2,1.19-2.46,2.31-3.77,3.39c-1.3,1.08-2.65,2.1-4.03,3.08
						C379.27,210.32,381.96,208.23,384.43,205.9z"/>
				</g>
				<g>
					<g>
						
							<linearGradient id="SVGID_7_" gradientUnits="userSpaceOnUse" x1="390.5419" y1="351.6899" x2="411.4538" y2="294.1142" gradientTransform="matrix(0.9742 -0.2257 0.4838 2.0876 -210.1599 -834.7854)">
							<stop  offset="0" style="stop-color:#66BB6A"/>
							<stop  offset="1" style="stop-color:#66BB6A"/>
						</linearGradient>
						<path class="st12" d="M375.72,169.16c-2.44-6.2-6.1-7.78-8.08-15.68c-1.3-5.15-0.15-6.11-1.71-9.76
							c-2.53-5.92-9.21-11.96-14.05-10.35c-4.52,1.51-6.34,9.33-5.65,14.92c0.86,6.97,5.26,7.48,5.31,13.72
							c0.05,6.42-4.57,10.55-2.3,13.63c1.08,1.46,2.37,0.87,3.92,2.81c2.04,2.54,0.61,4.52,2.32,6.95c1.97,2.81,4.67,1.3,6.78,3.97
							c2.19,2.76,0.03,5.3,2.31,8.93c0.2,0.32,0.42,0.5,1.03,1.29c0,0,1.52,1.95,2.82,3.99c2.45,3.84,3.56,11.45,4.61,11.44
							c1.25-0.01,1.95-10.58,3-26.47C377,173.91,376.79,171.89,375.72,169.16z"/>
					</g>
					<path class="st4" d="M369.83,191.21c-0.08-0.35-0.17-0.7-0.25-1.05c0.46-0.48,0.81-1.01,1.12-1.57
						c0.34-0.65,0.63-1.32,0.75-2.09c-0.57,0.52-0.97,1.14-1.33,1.78c-0.25,0.48-0.48,0.98-0.63,1.52c-0.69-2.82-1.54-5.6-2.55-8.33
						c0.28-0.28,0.47-0.6,0.62-0.93c0.18-0.43,0.32-0.88,0.27-1.41c-0.43,0.32-0.67,0.72-0.86,1.14c-0.09,0.22-0.17,0.44-0.22,0.68
						c-0.65-1.73-1.35-3.44-2.1-5.13c-0.06-0.13-0.11-0.25-0.17-0.38c0.56-0.8,1-1.66,1.4-2.53c0.43-1,0.82-2.01,1.02-3.11
						c-0.68,0.89-1.17,1.86-1.62,2.85c-0.36,0.83-0.68,1.69-0.9,2.58c-1.01-2.27-2-4.53-2.85-6.86c-0.46-1.27-0.89-2.56-1.29-3.86
						c0.79-0.78,1.45-1.65,2.07-2.54c0.65-0.97,1.26-1.97,1.7-3.08c-0.87,0.82-1.57,1.75-2.24,2.72c-0.59,0.88-1.13,1.79-1.56,2.78
						c-0.38-1.23-0.73-2.47-1.06-3.72c-0.69-2.6-1.25-5.24-1.68-7.9c-0.45-2.66-0.77-5.34-0.99-8.03c0.16,5.37,0.9,10.74,2.17,15.97
						c-0.55-0.59-1.16-1.1-1.8-1.57c-0.79-0.56-1.6-1.09-2.54-1.45c0.63,0.78,1.38,1.4,2.15,1.97c0.7,0.5,1.44,0.97,2.25,1.32
						c0.61,2.57,1.39,5.09,2.27,7.58c0.37,1.05,0.77,2.08,1.19,3.1c-0.87-0.82-1.8-1.56-2.75-2.26c-1.17-0.84-2.37-1.63-3.68-2.27
						c1.01,1.05,2.14,1.94,3.3,2.8c1.04,0.74,2.11,1.45,3.26,2.05c0.56,1.38,1.16,2.74,1.75,4.09c0.44,0.98,0.86,1.96,1.27,2.94
						c-0.36-0.26-0.74-0.47-1.13-0.65c-0.6-0.26-1.22-0.47-1.92-0.49c0.49,0.5,1.07,0.82,1.66,1.09c0.5,0.21,1.01,0.38,1.56,0.46
						c0.56,1.36,1.09,2.74,1.57,4.13c0.49,1.4,0.93,2.81,1.33,4.24c-0.37-0.44-0.79-0.82-1.23-1.18c-0.64-0.5-1.31-0.96-2.1-1.27
						c0.47,0.71,1.07,1.26,1.69,1.78c0.54,0.43,1.12,0.82,1.76,1.12c0.29,1.01,0.56,2.03,0.81,3.05c0.65,2.61,1.16,5.26,1.57,7.92
						c0.42,2.66,0.71,5.35,0.92,8.04C371.69,201.88,371.03,196.49,369.83,191.21z"/>
				</g>
				<g>
					<g>
						
							<linearGradient id="SVGID_8_" gradientUnits="userSpaceOnUse" x1="32.7313" y1="376.4225" x2="7.2098" y2="441.5838" gradientTransform="matrix(-0.8402 -0.5423 -0.5423 0.8402 625.8427 -163.6981)">
							<stop  offset="0" style="stop-color:#66BB6A"/>
							<stop  offset="1" style="stop-color:#66BB6A"/>
						</linearGradient>
						<path class="st13" d="M400.07,173.61c0.58-2.23-1.36-3.01-1.27-5.59c0.13-3.33,3.41-3.54,4.26-6.9
							c1.13-4.42-3.84-6.93-2.68-11.38c0.73-2.8,2.91-2.66,4.24-5.38c2.71-5.55-1.46-16.28-7.62-17.35
							c-5.28-0.92-11.16,5.41-13.4,10.98c-3.01,7.53,0.67,13.57-4.02,18.19c-1.8,1.77-3.65,2.17-4.73,4.73
							c-1.09,2.57,0.17,3.61-0.21,7.61c-0.52,5.46-3.11,6.04-2.43,9.43c0.65,3.22,3.19,3.73,3.2,6.96c0.01,1.83-0.81,2.41-1.43,4.56
							c-1.05,3.63-0.04,6.48,0.44,8.99c1.7,8.94-2.82,16.47-1.72,16.88c1.35,0.51,4.23-12.24,12.69-14.53
							c1.98-0.54,4.7-0.62,5.53-2.47c0.73-1.61-0.92-2.54-0.92-4.97c-0.01-4.46,5.55-5.39,6.28-10.9c0.24-1.83-0.28-2.44,0.38-4.11
							C397.68,175.8,399.54,175.67,400.07,173.61z"/>
					</g>
					<path class="st4" d="M382.59,191.18c0.12-0.37,0.22-0.75,0.33-1.13c0.69-0.2,1.31-0.51,1.9-0.87c0.67-0.43,1.31-0.9,1.84-1.56
						c-0.82,0.18-1.53,0.55-2.21,0.96c-0.5,0.32-0.98,0.67-1.42,1.09c0.88-3.03,1.58-6.11,2.11-9.22c0.41-0.11,0.76-0.31,1.09-0.54
						c0.4-0.31,0.77-0.66,1.01-1.18c-0.57,0.07-1.02,0.32-1.43,0.61c-0.2,0.16-0.4,0.33-0.58,0.52c0.33-1.98,0.59-3.97,0.8-5.96
						c0.02-0.15,0.03-0.3,0.05-0.45c0.96-0.45,1.84-1.02,2.69-1.63c0.95-0.71,1.86-1.45,2.64-2.38c-1.12,0.47-2.11,1.12-3.06,1.8
						c-0.79,0.59-1.55,1.22-2.24,1.94c0.27-2.68,0.57-5.35,1.03-8c0.25-1.45,0.55-2.89,0.87-4.33c1.16-0.31,2.25-0.77,3.32-1.27
						c1.14-0.56,2.25-1.18,3.27-1.98c-1.26,0.3-2.43,0.8-3.58,1.35c-1.03,0.51-2.04,1.07-2.98,1.77c0.31-1.37,0.65-2.73,1.02-4.08
						c0.76-2.82,1.66-5.61,2.69-8.35c1.01-2.75,2.17-5.44,3.42-8.09c-2.76,5.15-4.97,10.59-6.61,16.21c-0.2-0.86-0.5-1.66-0.84-2.45
						c-0.44-0.96-0.92-1.89-1.6-2.74c0.17,1.07,0.54,2.06,0.96,3.03c0.39,0.85,0.83,1.69,1.4,2.46c-0.82,2.75-1.44,5.55-1.97,8.37
						c-0.22,1.18-0.4,2.38-0.56,3.57c-0.37-1.24-0.85-2.44-1.36-3.61c-0.65-1.42-1.34-2.82-2.24-4.13c0.38,1.54,0.96,2.99,1.59,4.42
						c0.58,1.26,1.2,2.51,1.96,3.69c-0.21,1.6-0.39,3.2-0.56,4.8c-0.11,1.16-0.25,2.31-0.4,3.46c-0.2-0.44-0.44-0.84-0.71-1.22
						c-0.43-0.57-0.9-1.1-1.54-1.51c0.19,0.74,0.56,1.35,0.97,1.92c0.35,0.47,0.74,0.91,1.23,1.28c-0.21,1.59-0.46,3.17-0.76,4.74
						c-0.3,1.58-0.65,3.15-1.04,4.71c-0.12-0.61-0.3-1.2-0.52-1.77c-0.33-0.82-0.71-1.61-1.29-2.33c0.06,0.92,0.32,1.77,0.63,2.59
						c0.28,0.7,0.61,1.38,1.05,2.01c-0.28,1.11-0.57,2.21-0.89,3.32c-0.8,2.81-1.75,5.58-2.82,8.31c-1.04,2.74-2.23,5.42-3.48,8.07
						C378.56,202.23,380.86,196.8,382.59,191.18z"/>
				</g>
			</g>
			<path class="st8" d="M360.63,213.19l0.73,3.79l2.12,11.02c0.14,0.73,1.23,1.28,2.53,1.28h12c1.19,0,2.22-0.47,2.48-1.12
				l0.46-1.15l5.43-13.67c0.36-0.9-0.85-1.75-2.48-1.75h-20.73C361.64,211.6,360.46,212.34,360.63,213.19z"/>
			<path class="st9" d="M361.35,216.99l2.12,11.02c0.14,0.73,1.23,1.28,2.53,1.28h12c1.19,0,2.22-0.47,2.48-1.12l0.46-1.15
				c-2.59-0.45-7.14-1.44-11.59-3.68C364.7,220.99,362.41,218.41,361.35,216.99z"/>
		</g>
		<g>
			<linearGradient id="SVGID_9_" gradientUnits="userSpaceOnUse" x1="250.5905" y1="195.411" x2="248.5382" y2="244.1845">
				<stop  offset="0" style="stop-color:#66BB6A"/>
				<stop  offset="1" style="stop-color:#66BB6A"/>
			</linearGradient>
			<path class="st14" d="M266.69,229.38v-10.95c0-3.47-1.19-6.65-3.19-9.17c-1.67-2.12-3.91-3.78-6.49-4.73l-0.31,0.65l-0.27-0.86
				c-1.44-0.47-2.98-0.72-4.58-0.72h-4.92c-1.52,0-2.98,0.23-4.36,0.65l0.95,3.39l-2.97-2.61c-4.96,2.37-8.4,7.41-8.45,13.26
				c-0.01,0.05-0.01,0.09-0.01,0.13v10.95H266.69z"/>
			<linearGradient id="SVGID_10_" gradientUnits="userSpaceOnUse" x1="231.0565" y1="210.0127" x2="225.879" y2="246.2554">
				<stop  offset="0" style="stop-color:#66BB6A"/>
				<stop  offset="1" style="stop-color:#66BB6A"/>
			</linearGradient>
			<path class="st15" d="M237.36,227.16v-1.8c-0.06-0.06-0.09-0.09-0.16-0.14l-3.66,0.34l3.43-2.55c-0.77-2.25-2.58-4.02-4.87-4.7
				c-0.67-0.2-1.38-0.31-2.12-0.31h-1.57l-0.48,1.39l-0.64-1.39c-3.96,0.13-7.13,3.37-7.13,7.37v1.69c0,1.29,1.04,2.33,2.33,2.33
				h12.63C236.36,229.38,237.36,228.39,237.36,227.16z"/>
			<linearGradient id="SVGID_11_" gradientUnits="userSpaceOnUse" x1="269.0791" y1="233.9203" x2="262.9221" y2="218.3465">
				<stop  offset="0" style="stop-color:#66BB6A"/>
				<stop  offset="1" style="stop-color:#66BB6A"/>
			</linearGradient>
			<path class="st16" d="M276.76,229.38c1.24,0,2.25-1.01,2.25-2.25v-4.5c0-1.58-0.41-3.08-1.13-4.42l-2.45,0.37l1.09-2.29
				c-1.37-1.55-3.24-2.74-5.39-3.41c-0.67,0.97-1.35,1.94-2.02,2.91c-0.03-1.13-0.06-2.25-0.08-3.38c-0.63-0.09-1.28-0.14-1.94-0.14
				h-3.96c-2.69,0-5.17,0.78-7.16,2.08l2.18,4.72l-4.64-2.55c-1.44,1.71-2.29,3.82-2.29,6.1v3.67c0,1.7,1.38,3.08,3.08,3.08H276.76z
				"/>
		</g>
	</g>
	<path class="st2" d="M284.82,224.46h-2.36l-54.76-31.61v-5.51c0-0.75-0.61-1.36-1.36-1.36h-2.18V84.7h-4.74v101.28h-2.12
		c-0.75,0-1.36,0.61-1.36,1.36v5.51l-54.76,31.61h-2.36c-1.36,0-2.46,1.1-2.46,2.46s1.1,2.46,2.46,2.46h9.84
		c1.36,0,2.46-1.1,2.46-2.46s-1.1-2.46-2.46-2.46h-0.45l49.31-28.47h8.61l49.31,28.47h-0.45c-1.36,0-2.46,1.1-2.46,2.46
		s1.1,2.46,2.46,2.46h9.84c1.36,0,2.46-1.1,2.46-2.46S286.18,224.46,284.82,224.46z"/>
	<g>
		<g>
			<path class="st17" d="M181.8,13.42h-0.5h-37.39h-0.5h-37.89v14.93v0.5v14.42v0.5v14.42v0.5v14.93h37.89h0.5h37.39h0.5h37.89V58.7
				v-0.5V43.77v-0.5V28.84v-0.5V13.42H181.8z M143.91,13.92h37.39v14.42h-37.39V13.92z M181.3,43.27h-37.39V28.84h37.39V43.27z
				 M181.3,58.19h-37.39V43.77h37.39V58.19z M106.01,13.92h37.39v14.42h-37.39V13.92z M106.01,28.84h37.39v14.42h-37.39V28.84z
				 M106.01,43.77h37.39v14.42h-37.39V43.77z M143.4,73.12h-37.39V58.7h37.39V73.12z M181.3,73.12h-37.39V58.7h37.39V73.12z
				 M219.19,73.12H181.8V58.7h37.39V73.12z M219.19,58.19H181.8V43.77h37.39V58.19z M219.19,43.27H181.8V28.84h37.39V43.27z
				 M181.8,28.34V13.92h37.39v14.42H181.8z"/>
			<path class="st18" d="M216.54,24.15l-9.4,1.44l1.77,2.5l-27.32,17.77l-18.81-3.33c-0.35-0.06-0.7,0.06-0.94,0.33l-18.25,21.16
				l-18.56-6.28c-0.32-0.11-0.67-0.05-0.94,0.16l-16.06,12.39c-0.57-0.41-1.27-0.65-2.02-0.65c-1.92,0-3.48,1.56-3.48,3.48
				c0,1.92,1.56,3.48,3.48,3.48c1.92,0,3.48-1.56,3.48-3.48c0-0.44-0.08-0.85-0.23-1.24l15.63-12.06l18.69,6.32
				c0.39,0.13,0.82,0.01,1.08-0.3l18.32-21.24l18.63,3.3c0.25,0.04,0.51-0.01,0.72-0.15l27.72-18.03l1.98,2.8L216.54,24.15z"/>
			<path class="st19" d="M124.71,82.16c-0.31,0-0.56-0.25-0.56-0.56V61.31c0-0.31,0.25-0.56,0.56-0.56c0.31,0,0.56,0.25,0.56,0.56
				V81.6C125.27,81.91,125.02,82.16,124.71,82.16z"/>
			<g>
				<path class="st19" d="M120.67,86.22v0.64h-2.68v-0.64H120.67z M119.66,87.89h-0.67V85.2h0.67V87.89z"/>
				<path class="st19" d="M124.19,88.76h-0.67v-4.07l-0.68,0.42v-0.7l0.68-0.46h0.67V88.76z"/>
				<path class="st19" d="M125.62,88.45c-0.23-0.24-0.35-0.57-0.35-1v-2.18c0-0.43,0.12-0.77,0.35-1.01
					c0.23-0.24,0.57-0.36,1.02-0.36c0.45,0,0.79,0.12,1.02,0.36c0.23,0.24,0.35,0.57,0.35,1.01v2.18c0,0.43-0.12,0.77-0.35,1.01
					c-0.23,0.24-0.57,0.36-1.02,0.36C126.2,88.81,125.86,88.69,125.62,88.45z M127.17,87.98c0.11-0.12,0.17-0.3,0.17-0.54v-2.18
					c0-0.23-0.06-0.41-0.17-0.54c-0.11-0.12-0.29-0.19-0.53-0.19s-0.42,0.06-0.53,0.19c-0.11,0.12-0.17,0.3-0.17,0.54v2.18
					c0,0.23,0.06,0.41,0.17,0.54s0.29,0.19,0.53,0.19C126.88,88.17,127.06,88.1,127.17,87.98z"/>
				<path class="st19" d="M129.05,85.79c-0.14-0.15-0.21-0.36-0.21-0.62v-0.41c0-0.27,0.07-0.47,0.21-0.62
					c0.14-0.15,0.34-0.22,0.59-0.22c0.26,0,0.45,0.07,0.59,0.22c0.14,0.15,0.21,0.36,0.21,0.63v0.41c0,0.27-0.07,0.48-0.21,0.62
					c-0.14,0.15-0.34,0.22-0.59,0.22C129.39,86.01,129.19,85.94,129.05,85.79z M131.83,83.96h0.59l-2.61,4.8h-0.59L131.83,83.96z
					 M129.82,85.41c0.04-0.05,0.07-0.12,0.07-0.21v-0.49c0-0.09-0.02-0.16-0.07-0.2c-0.04-0.05-0.1-0.07-0.18-0.07
					c-0.08,0-0.14,0.02-0.18,0.07s-0.06,0.12-0.06,0.21v0.48c0,0.09,0.02,0.17,0.06,0.21s0.1,0.07,0.18,0.07
					C129.72,85.49,129.78,85.46,129.82,85.41z M131.44,88.58c-0.14-0.15-0.21-0.36-0.21-0.62v-0.41c0-0.27,0.07-0.47,0.21-0.62
					c0.14-0.15,0.34-0.22,0.59-0.22c0.26,0,0.45,0.07,0.59,0.22c0.14,0.15,0.21,0.36,0.21,0.63v0.41c0,0.27-0.07,0.48-0.21,0.62
					c-0.14,0.15-0.34,0.22-0.59,0.22C131.77,88.81,131.58,88.73,131.44,88.58z M132.21,88.21c0.04-0.05,0.07-0.12,0.07-0.21v-0.49
					c0-0.09-0.02-0.16-0.07-0.2c-0.04-0.05-0.1-0.07-0.18-0.07c-0.08,0-0.14,0.02-0.18,0.07c-0.04,0.05-0.06,0.12-0.06,0.21V88
					c0,0.09,0.02,0.17,0.06,0.21c0.04,0.05,0.1,0.07,0.18,0.07C132.11,88.28,132.17,88.26,132.21,88.21z"/>
			</g>
			<path class="st19" d="M142.84,68.52l0,3.22c0,0.31,0.25,0.56,0.56,0.56l0,0c0.31,0,0.56-0.25,0.56-0.56l0-3.22
				c0-0.31-0.25-0.56-0.56-0.56l0,0C143.09,67.96,142.84,68.21,142.84,68.52z"/>
			<path class="st19" d="M126.6,58.7c0,1.04-0.85,1.89-1.89,1.89c-1.04,0-1.89-0.85-1.89-1.89c0-1.04,0.85-1.89,1.89-1.89
				C125.75,56.81,126.6,57.65,126.6,58.7z"/>
			<path class="st19" d="M145.29,65.21c0,1.04-0.85,1.89-1.89,1.89c-1.04,0-1.89-0.85-1.89-1.89c0-1.04,0.85-1.89,1.89-1.89
				C144.45,63.32,145.29,64.17,145.29,65.21z"/>
		</g>
		<g>
			<g>
				<path class="st20" d="M259.03,73.12c0,9.15-7.42,16.57-16.56,16.57c-9.15,0-16.56-7.42-16.56-16.57
					c0-9.15,7.41-16.56,16.56-16.56c3.61,0,6.96,1.16,9.68,3.13c0.14,0.1,0.27,0.2,0.4,0.3l-10.09,13.14l16.19-3.5
					c0.04,0.16,0.07,0.33,0.1,0.49C258.94,71.08,259.03,72.09,259.03,73.12z"/>
				<path class="st21" d="M258.66,69.62l-16.19,3.5l10.09-13.14c0.13,0.1,0.27,0.21,0.39,0.32c2.73,2.22,4.73,5.3,5.6,8.82
					C258.58,69.28,258.62,69.45,258.66,69.62z"/>
				<path class="st1" d="M258.75,70.11l-16.18,3.5c-0.04,0.01-0.07,0.01-0.11,0.01c-0.17,0-0.33-0.09-0.43-0.23
					c-0.11-0.18-0.1-0.41,0.03-0.57l10.08-13.13c0.14,0.1,0.27,0.2,0.4,0.3c0.13,0.1,0.27,0.21,0.39,0.32l-9.25,12.04l14.84-3.22
					c0.04,0.16,0.08,0.33,0.12,0.49C258.69,69.78,258.73,69.94,258.75,70.11z"/>
			</g>
			<g>
				<path class="st20" d="M298.86,82.83c-0.1,0.14-0.2,0.27-0.3,0.4c-3.03,3.92-7.78,6.46-13.12,6.46
					c-9.15,0-16.57-7.42-16.57-16.57c0-8.98,7.15-16.29,16.07-16.55c0.17-0.01,0.34-0.01,0.5-0.01v16.56L298.86,82.83z"/>
				<path class="st18" d="M296.64,60.93l-11.21,12.19V56.56c0.17,0,0.34,0,0.5,0.01c3.6,0.11,6.91,1.36,9.58,3.42
					c0.26,0.2,0.5,0.4,0.74,0.61C296.39,60.7,296.52,60.81,296.64,60.93z"/>
				<path class="st21" d="M302,73.12c0,3.45-1.05,6.65-2.85,9.3c-0.09,0.14-0.19,0.28-0.29,0.41l-13.42-9.71l11.21-12.19
					c0.12,0.11,0.24,0.23,0.36,0.34c2.28,2.23,3.92,5.11,4.62,8.35C301.87,70.75,302,71.92,302,73.12z"/>
				<path class="st1" d="M299.14,82.42c-0.09,0.14-0.19,0.28-0.29,0.41c-0.1,0.14-0.2,0.27-0.3,0.4l-13.42-9.7
					c-0.01,0-0.02-0.02-0.03-0.03c-0.01,0-0.01,0-0.02-0.01c0-0.01,0-0.01-0.01-0.02c-0.05-0.04-0.08-0.09-0.1-0.14
					c-0.01,0-0.01-0.02-0.01-0.03c-0.02-0.05-0.04-0.1-0.04-0.15V56.57c0.17-0.01,0.34-0.01,0.5-0.01c0.17,0,0.34,0,0.5,0.01v15.27
					l10.33-11.24c0.13,0.11,0.25,0.22,0.38,0.33c0.12,0.11,0.24,0.23,0.36,0.34l-10.82,11.77L299.14,82.42z"/>
			</g>
			<g>
				<path class="st20" d="M327.99,86.77c-0.15,0.06-0.29,0.12-0.45,0.17c-1.68,0.63-3.51,0.96-5.41,0.96
					c-8.65,0-15.67-7.01-15.67-15.67c0-4.87,2.23-9.23,5.73-12.11c0.12-0.1,0.25-0.2,0.37-0.29l9.57,12.4L327.99,86.77z"/>
				<path class="st18" d="M330.28,58.86l-8.14,13.38l-9.57-12.4c0.12-0.09,0.25-0.19,0.38-0.29c2.58-1.88,5.76-2.98,9.19-2.98
					c2.81,0,5.45,0.75,7.73,2.04C330.01,58.69,330.15,58.78,330.28,58.86z"/>
				<path class="st21" d="M337.8,72.24c0,3.43-1.1,6.6-2.97,9.18c-1.63,2.24-3.84,4.04-6.4,5.17c-0.14,0.07-0.29,0.13-0.44,0.19
					l-5.86-14.53l8.14-13.38c0.14,0.08,0.27,0.17,0.4,0.25c0.34,0.22,0.67,0.46,1,0.7c0.37,0.28,0.71,0.58,1.06,0.89
					c2.34,2.15,4.02,5,4.71,8.22C337.68,69.99,337.8,71.1,337.8,72.24z"/>
				<path class="st1" d="M322.66,72.28l5.77,14.31c-0.14,0.07-0.29,0.13-0.44,0.19c-0.15,0.06-0.29,0.12-0.45,0.17l-5.83-14.46
					l-9.52-12.35c0.12-0.1,0.25-0.2,0.37-0.29c0.12-0.09,0.25-0.19,0.38-0.29l9.14,11.85l7.78-12.79c0.14,0.08,0.28,0.16,0.41,0.24
					c0.14,0.08,0.27,0.17,0.4,0.25L322.66,72.28z"/>
			</g>
		</g>
		<g>
			<path class="st17" d="M244.64,96.45h-17.5c-0.69,0-1.24,0.56-1.24,1.24l0,0c0,0.69,0.56,1.24,1.24,1.24h17.5
				c0.69,0,1.24-0.56,1.24-1.24l0,0C245.88,97.01,245.32,96.45,244.64,96.45z"/>
			<path class="st17" d="M293.43,96.45H257.8c-0.69,0-1.24,0.56-1.24,1.24l0,0c0,0.69,0.56,1.24,1.24,1.24h35.63
				c0.69,0,1.24-0.56,1.24-1.24l0,0C294.67,97.01,294.11,96.45,293.43,96.45z"/>
			<path class="st17" d="M304.67,97.7L304.67,97.7c0,0.69,0.56,1.24,1.24,1.24h30.65c0.69,0,1.24-0.56,1.24-1.24l0,0
				c0-0.69-0.56-1.24-1.24-1.24h-30.65C305.22,96.45,304.67,97.01,304.67,97.7z"/>
			<path class="st17" d="M311.39,103.27h-84.24c-0.69,0-1.24,0.56-1.24,1.24l0,0c0,0.69,0.56,1.24,1.24,1.24h84.24
				c0.69,0,1.24-0.56,1.24-1.24l0,0C312.63,103.83,312.07,103.27,311.39,103.27z"/>
			<path class="st17" d="M323.47,104.52L323.47,104.52c0,0.69,0.56,1.24,1.24,1.24h11.85c0.69,0,1.24-0.56,1.24-1.24l0,0
				c0-0.69-0.56-1.24-1.24-1.24h-11.85C324.03,103.27,323.47,103.83,323.47,104.52z"/>
			<path class="st17" d="M260.9,110.09h-33.76c-0.69,0-1.24,0.56-1.24,1.24l0,0c0,0.69,0.56,1.24,1.24,1.24h33.76
				c0.69,0,1.24-0.56,1.24-1.24l0,0C262.14,110.65,261.59,110.09,260.9,110.09z"/>
			<path class="st17" d="M275.7,111.34L275.7,111.34c0,0.69,0.56,1.24,1.24,1.24h59.62c0.69,0,1.24-0.56,1.24-1.24l0,0
				c0-0.69-0.56-1.24-1.24-1.24h-59.62C276.25,110.09,275.7,110.65,275.7,111.34z"/>
			<path class="st17" d="M299.41,118.16L299.41,118.16c0,0.69,0.56,1.24,1.24,1.24h35.9c0.69,0,1.24-0.56,1.24-1.24l0,0
				c0-0.69-0.56-1.24-1.24-1.24h-35.9C299.97,116.91,299.41,117.47,299.41,118.16z"/>
			<path class="st17" d="M236.51,116.91h-9.37c-0.69,0-1.24,0.56-1.24,1.24l0,0c0,0.69,0.56,1.24,1.24,1.24h9.37
				c0.69,0,1.24-0.56,1.24-1.24l0,0C237.75,117.47,237.19,116.91,236.51,116.91z"/>
			<path class="st17" d="M251.13,118.16L251.13,118.16c0,0.69,0.56,1.24,1.24,1.24h33.43c0.69,0,1.24-0.56,1.24-1.24l0,0
				c0-0.69-0.56-1.24-1.24-1.24h-33.43C251.69,116.91,251.13,117.47,251.13,118.16z"/>
			<path class="st17" d="M252.77,123.73h-25.63c-0.69,0-1.24,0.56-1.24,1.24l0,0c0,0.69,0.56,1.24,1.24,1.24h25.63
				c0.69,0,1.24-0.56,1.24-1.24l0,0C254.01,124.29,253.46,123.73,252.77,123.73z"/>
			<path class="st17" d="M313.08,123.73h-44.61c-0.69,0-1.24,0.56-1.24,1.24l0,0c0,0.69,0.56,1.24,1.24,1.24h44.61
				c0.69,0,1.24-0.56,1.24-1.24l0,0C314.32,124.29,313.77,123.73,313.08,123.73z"/>
			<path class="st17" d="M325.67,124.98L325.67,124.98c0,0.69,0.56,1.24,1.24,1.24h9.65c0.69,0,1.24-0.56,1.24-1.24l0,0
				c0-0.69-0.56-1.24-1.24-1.24h-9.65C326.23,123.73,325.67,124.29,325.67,124.98z"/>
		</g>
		<path class="st17" d="M280.94,23.79h-52.11c-1.62,0-2.92-1.31-2.92-2.92v-0.07c0-1.61,1.31-2.92,2.92-2.92h52.11
			c1.62,0,2.92,1.31,2.92,2.92v0.07C283.86,22.48,282.55,23.79,280.94,23.79z M315.09,32.83v-0.05c0-1.23-1-2.23-2.23-2.23h-84.73
			c-1.23,0-2.23,1-2.23,2.23v0.05c0,1.23,1,2.23,2.23,2.23h84.73C314.09,35.06,315.09,34.06,315.09,32.83z M315.09,40.39v-0.05
			c0-1.23-1-2.23-2.23-2.23h-84.73c-1.23,0-2.23,1-2.23,2.23v0.05c0,1.23,1,2.23,2.23,2.23h84.73
			C314.09,42.62,315.09,41.62,315.09,40.39z M315.09,47.94v-0.05c0-1.23-1-2.23-2.23-2.23h-84.73c-1.23,0-2.23,1-2.23,2.23v0.05
			c0,1.23,1,2.23,2.23,2.23h84.73C314.09,50.17,315.09,49.17,315.09,47.94z"/>
		<path class="st21" d="M165.2,126.01h-5.56v-2.77h5.56V126.01z M175.52,105.07h-5.56v20.95h5.56V105.07z M185.84,92.38h-5.56v33.63
			h5.56V92.38z M196.16,102.08h-5.56v23.94h5.56V102.08z M206.49,97.63h-5.56v28.38h5.56V97.63z M216.81,86.71h-5.56v39.3h5.56
			V86.71z"/>
	</g>
	<g>
		<path class="st22" d="M186.13,139.53h-5.94h-5.01v-6.42c0-1.4-1.14-2.54-2.54-2.54h-37.01c-1.4,0-2.54,1.14-2.54,2.54v6.42H73.13
			c-3.22,0-5.83,2.61-5.83,5.83v69.44c0,6.42,5.2,11.62,11.62,11.62h101.42c6.42,0,11.62-5.2,11.62-11.62v-69.44
			C191.96,142.14,189.35,139.53,186.13,139.53z"/>
		<linearGradient id="SVGID_12_" gradientUnits="userSpaceOnUse" x1="116.8361" y1="153.4315" x2="120.004" y2="194.3708">
			<stop  offset="0" style="stop-color:#FFFFFF"/>
			<stop  offset="1" style="stop-color:#9FA8DA"/>
		</linearGradient>
		<path class="st23" d="M65.66,171.42c-1.72-6.84-3.44-13.68-5.16-20.52c37.41-0.28,74.82-0.56,112.23-0.83v22.99L65.66,171.42z"/>
		<g>
			<rect x="74.9" y="118.56" class="st1" width="65.83" height="46.9"/>
			<path class="st17" d="M128.06,136.52c0,0.37-0.41,0.67-0.92,0.67h-23.29c-0.51,0-0.92-0.3-0.92-0.67c0-0.37,0.41-0.67,0.92-0.67
				h23.29C127.65,135.85,128.06,136.15,128.06,136.52z M87.58,131.53h6.94c0.51,0,0.92-0.3,0.92-0.67c0-0.37-0.41-0.67-0.92-0.67
				h-6.94c-0.51,0-0.92,0.3-0.92,0.67C86.67,131.23,87.08,131.53,87.58,131.53z M86.67,133.69c0,0.37,0.41,0.67,0.92,0.67h25.39
				c0.51,0,0.92-0.3,0.92-0.67l0,0c0-0.37-0.41-0.67-0.92-0.67H87.58C87.08,133.02,86.67,133.32,86.67,133.69L86.67,133.69z
				 M128.06,133.69c0-0.37-0.41-0.67-0.92-0.67h-6.87c-0.51,0-0.92,0.3-0.92,0.67l0,0c0,0.37,0.41,0.67,0.92,0.67h6.87
				C127.65,134.36,128.06,134.06,128.06,133.69L128.06,133.69z M87.31,125.3h40.11c0.36,0,0.64-0.29,0.64-0.64v-0.05
				c0-0.36-0.29-0.64-0.64-0.64H87.31c-0.36,0-0.64,0.29-0.64,0.64v0.05C86.67,125.01,86.95,125.3,87.31,125.3z M87.58,137.19h8.12
				c0.51,0,0.92-0.3,0.92-0.67c0-0.37-0.41-0.67-0.92-0.67h-8.12c-0.51,0-0.92,0.3-0.92,0.67
				C86.67,136.89,87.08,137.19,87.58,137.19z M127.15,130.19h-25.23c-0.51,0-0.92,0.3-0.92,0.67c0,0.37,0.41,0.67,0.92,0.67h25.23
				c0.51,0,0.92-0.3,0.92-0.67C128.06,130.49,127.65,130.19,127.15,130.19z"/>
			<path class="st24" d="M140.73,166.4H74.9c-0.16,0-0.29-0.13-0.29-0.29v-47.89c0-0.16,0.13-0.29,0.29-0.29h65.83
				c0.16,0,0.29,0.13,0.29,0.29v47.89C141.02,166.27,140.89,166.4,140.73,166.4z M75.18,165.82h65.26v-47.31H75.18V165.82z"/>
			<path class="st17" d="M92.35,166.74h-5.54c-0.54,0-0.97-0.44-0.97-0.97v-0.02c0-0.54,0.44-0.97,0.97-0.97h5.54
				c0.54,0,0.97,0.44,0.97,0.97v0.02C93.33,166.31,92.89,166.74,92.35,166.74z M107.81,165.77v-0.02c0-0.54-0.44-0.97-0.97-0.97
				h-5.54c-0.54,0-0.97,0.44-0.97,0.97v0.02c0,0.54,0.44,0.97,0.97,0.97h5.54C107.38,166.74,107.81,166.31,107.81,165.77z
				 M122.3,165.77v-0.02c0-0.54-0.44-0.97-0.97-0.97h-5.54c-0.54,0-0.97,0.44-0.97,0.97v0.02c0,0.54,0.44,0.97,0.97,0.97h5.54
				C121.86,166.74,122.3,166.31,122.3,165.77z"/>
			<path class="st17" d="M114.55,141.74h-0.19h-14h-0.19H85.98v5.59v0.19v5.4v0.19v5.4v0.19v5.59h14.19h0.19h14h0.19h14.19v-5.59
				v-0.19v-5.4v-0.19v-5.4v-0.19v-5.59H114.55z M100.36,141.93h14v5.4h-14V141.93z M114.37,152.92h-14v-5.4h14V152.92z
				 M114.37,158.51h-14v-5.4h14V158.51z M86.17,141.93h14v5.4h-14V141.93z M86.17,147.52h14v5.4h-14V147.52z M86.17,153.11h14v5.4
				h-14V153.11z M100.17,164.1h-14v-5.4h14V164.1z M114.37,164.1h-14v-5.4h14V164.1z M128.56,164.1h-14v-5.4h14V164.1z
				 M128.56,158.51h-14v-5.4h14V158.51z M128.56,152.92h-14v-5.4h14V152.92z M114.55,147.33v-5.4h14v5.4H114.55z"/>
			<path class="st19" d="M127.56,145.76l-3.52,0.54l0.66,0.94l-10.23,6.66l-7.04-1.25c-0.13-0.02-0.26,0.02-0.35,0.12l-6.84,7.92
				l-6.95-2.35c-0.12-0.04-0.25-0.02-0.35,0.06l-6.01,4.64c-0.21-0.15-0.47-0.24-0.76-0.24c-0.72,0-1.3,0.58-1.3,1.3
				s0.58,1.3,1.3,1.3c0.72,0,1.3-0.58,1.3-1.3c0-0.16-0.03-0.32-0.09-0.46l5.85-4.52l7,2.37c0.15,0.05,0.31,0.01,0.41-0.11
				l6.86-7.95l6.98,1.24c0.09,0.02,0.19,0,0.27-0.06l10.38-6.75l0.74,1.05L127.56,145.76z"/>
		</g>
		<polygon class="st1" points="152.23,173.75 162.92,139.44 213,158.98 192.46,187.98 		"/>
		<linearGradient id="SVGID_13_" gradientUnits="userSpaceOnUse" x1="128.9306" y1="162.789" x2="141.475" y2="275.6883">
			<stop  offset="0" style="stop-color:#FFD54F"/>
			<stop  offset="1" style="stop-color:#FB8C00"/>
		</linearGradient>
		<path class="st25" d="M79.46,229.18l12.48,0.17h89.24c5.31,0,10.2-3.19,12.05-8.16c0.08-0.22,0.16-0.44,0.23-0.67
			c4.38-13.89,6.86-37.86,7.9-50.13c0.35-4.16-2.94-7.73-7.11-7.71c-25.03,0.07-103.93,0.28-128.87,0.34
			c-4.15,0.01-7.41,3.56-7.07,7.7c0.98,11.93,3.32,34.94,7.58,48.35C67.76,225.01,73.21,229.1,79.46,229.18z"/>
	</g>
	<g>
		<path class="st26" d="M87.16,228.83c0.19-0.22,0.37-0.45,0.56-0.67c0.36,0.22,0.72,0.45,1.08,0.67h13.69
			c2.35-0.04,4.7-0.09,7.05-0.13c0.19-0.64,0.35-1.55-0.04-2.38c-0.77-1.66-3.14-1.95-6.13-2.45c-2.19-0.36-5.37-0.93-9.32-1.83
			c-0.44-1.08-0.88-2.16-1.32-3.24c-2.34-0.07-4.69-0.13-7.03-0.2c-0.55,1.26-1.15,3-1.48,5.12c-0.31,2.03-0.28,3.78-0.16,5.11
			H87.16z"/>
		<path class="st27" d="M87.84,102.02c3.35,19.56,6.69,39.13,10.04,58.69c-1.1,19.6-2.21,39.2-3.31,58.79
			c-3.65,0.17-7.29,0.33-10.94,0.5c-0.5-17.36-1-34.72-1.5-52.08c-6.88-17.64-13.76-35.28-20.64-52.92
			C70.27,110.67,79.06,106.35,87.84,102.02z"/>
		<path class="st28" d="M120.39,49.87c0.32-0.45,0.94-0.56,1.39-0.24l8.82,6.22l5.31,3.75l4.12,2.92c0.09,0.06,0.15,0.14,0.21,0.22
			l0.01-0.01l0.04,0.06c0.01,0.01,0.02,0.02,0.03,0.04l1.52,2.28l-2.6-0.8l0,0c-0.12-0.03-0.25-0.08-0.35-0.16l-2.85-2.01
			c0.68-0.12,1.19-0.21,1.19-0.21c-0.23-0.34-0.58-0.76-1.13-0.95c-0.73-0.26-1.36,0.05-1.83-0.1l-0.01,0l-0.36-0.26
			c0-0.01,0-0.01,0-0.01l-4.77-3.36l-8.48-5.99C120.18,50.94,120.08,50.32,120.39,49.87z"/>
		<path class="st29" d="M135.92,59.6c0.15,0.18,0.5,0.56,1.08,0.76c0.35,0.12,0.65,0.13,0.86,0.12c-0.01-0.41-0.05-0.86-0.14-1.35
			c-0.25-1.44-0.8-2.57-1.28-3.35c-0.91-0.33-1.82-0.66-2.74-0.99c-0.58,0.05-1.34,0.19-2.17,0.56c-0.35,0.16-0.66,0.33-0.93,0.5
			C132.37,57.1,134.15,58.35,135.92,59.6z"/>
		<path class="st29" d="M123.42,59.54l0.8,5c0,0,7.91-1.92,8.44-1.91c0.35,0.01,2.14-0.29,3.38-0.5c0.68-0.12,1.19-0.21,1.19-0.21
			c-0.23-0.34-0.58-0.76-1.13-0.95c-0.73-0.26-1.36,0.05-1.83-0.1l-0.01,0c-0.08-0.02-0.16-0.06-0.24-0.12
			c-0.04-0.04-0.09-0.08-0.13-0.13c0-0.01,0-0.01,0-0.01l-4.77-3.36c-0.27,0.24-0.56,0.48-0.84,0.7
			C126.52,59.33,123.42,59.54,123.42,59.54z"/>
		<path class="st30" d="M81.54,51.11c7.56,2.86,15.11,5.71,22.67,8.57c6.9-0.2,13.79-0.41,20.69-0.61c0.32,0.87,0.61,1.88,0.8,3.03
			c0.5,2.96,0.11,5.48-0.3,7.14c-7.81,0.54-15.62,1.08-23.43,1.63c-4.73-0.38-9.45-0.75-14.18-1.13
			C85.7,63.53,83.62,57.32,81.54,51.11z"/>
		<polygon class="st30" points="80.36,48.18 82.87,49.37 84.11,54.32 81.2,51.15 		"/>
		<path class="st29" d="M68.74,52.11c0.22,1.56,0.97,5.3,4.07,8.25c3.75,3.56,10.41,5.47,13.01,2.79
			c1.65-1.71-3.94-11.71-4.28-12.02c-0.05-0.09-0.1-0.2-0.14-0.33c-0.04-0.09-0.08-0.2-0.11-0.31c-0.01-0.01-0.01-0.01-0.01-0.02
			c-0.17-0.46-0.3-1.03-0.34-1.7c-0.02-0.12-0.02-0.23-0.02-0.33v-0.01c0.02-0.44,0.15-1.01,0.62-3.34
			c0.12-0.56,0.24-1.22,0.37-2.01c0.01-0.06,0.02-0.13,0.04-0.2c0.07-0.31,0.11-0.63,0.16-0.93c0.01-0.06,0.02-0.11,0.03-0.17
			c0.07-0.32,0.13-0.66,0.18-0.98c-0.71-0.22-1.41-0.45-2.11-0.67c-1.37-0.44-2.73-0.87-4.1-1.3c-0.62-0.2-1.22-0.41-1.85-0.6
			c-0.12,0.52-0.21,0.98-0.28,1.39c-0.11,0.65-0.17,1.17-0.21,1.57c-0.01,0.14-0.03,0.38-0.05,0.64c-0.03,0.28-0.05,0.57-0.07,0.77
			c-0.01,0.19-0.02,0.34-0.03,0.44c0,0.1-0.01,0.16-0.01,0.18c0,0.01,0,0.01,0,0.02c0,0.01-0.01,0.02-0.01,0.02
			c0,0.22-0.02,0.41-0.02,0.54c0,0-0.02,0.13-0.04,0.25c-0.01,0.28-0.35,2.05-0.89,4.47c-0.07,0.07-0.15,0.14-0.22,0.21
			C71.19,49.84,69.96,50.96,68.74,52.11z"/>
		
			<linearGradient id="SVGID_14_" gradientUnits="userSpaceOnUse" x1="562.2062" y1="53.9267" x2="556.3013" y2="39.6357" gradientTransform="matrix(-1 0 0 1 636.1677 0)">
			<stop  offset="0" style="stop-color:#FFAB91"/>
			<stop  offset="1" style="stop-color:#FFCCBC"/>
		</linearGradient>
		<path class="st31" d="M73.61,43.2c0,0.01,0,0.01,0,0.02c0.46,0.8,0.99,1.63,1.62,2.46c1.75,2.32,4.59,4.03,6.06,4.8
			c-0.01-0.01-0.01-0.01-0.01-0.02c-0.17-0.46-0.3-1.03-0.34-1.7c-0.02-0.12-0.02-0.23-0.02-0.33v-0.01
			c0.02-0.44,0.15-1.01,0.62-3.34c0.12-0.56,0.24-1.22,0.37-2.01c0.01-0.06,0.02-0.13,0.04-0.2c0.07-0.31,0.11-0.63,0.16-0.93
			c0.01-0.06,0.02-0.11,0.03-0.17l-8.16-2.16c-0.11,0.65-0.17,1.17-0.21,1.57c-0.01,0.14-0.03,0.38-0.05,0.64
			c-0.03,0.28-0.05,0.57-0.07,0.77c-0.01,0.19-0.02,0.34-0.03,0.44C73.62,43.12,73.61,43.18,73.61,43.2z"/>
		<path class="st29" d="M83.43,21.82c3.78,2.04,4.64,6.22,4.93,7.61c0.16,0.78,0.39,2.25-0.42,7.33c-0.33,2.06-0.84,4.82-1.68,8.1
			c-0.12,0.49-0.94,1.08-1.97,1.52c-3.35,1.42-7.87-1.31-10.06-4.35c-0.23-0.31-0.39-0.58-0.5-0.77c-0.43-0.66-1.02-1.63-1.63-2.85
			c-1.67-3.32-3.28-6.53-2.57-10.04c0.6-2.95,2.56-4.78,2.87-5.06C75.18,20.81,79.76,19.84,83.43,21.82z"/>
		<path class="st26" d="M81.08,37.07l-0.03,0c-0.34,0.01-0.62-0.26-0.63-0.6l-0.03-1.12c-0.01-0.34,0.26-0.62,0.6-0.63l0.03,0
			c0.34-0.01,0.62,0.26,0.63,0.6l0.03,1.12C81.68,36.78,81.42,37.06,81.08,37.07z"/>
		<path class="st26" d="M86.19,38.98l-0.04,0c-0.31,0.01-0.56-0.24-0.57-0.54l-0.03-1.05c-0.01-0.31,0.24-0.57,0.55-0.57l0.04,0
			c0.31-0.01,0.56,0.24,0.57,0.54l0.03,1.05C86.74,38.72,86.5,38.97,86.19,38.98z"/>
		<path class="st32" d="M83.85,35.52c0.19,0.91,0.34,2.33-0.15,3.9c-0.12,0.38-0.26,0.72-0.4,1.02c0.26-0.05,0.83-0.19,1.13-0.67
			c0.26-0.41,0.15-0.87-0.04-1.74C84.27,37.52,84.09,36.67,83.85,35.52z"/>
		<path class="st26" d="M73.17,220.07c0.32,0.74,0.64,1.47,0.96,2.21c3.69,0.19,6.73,0.61,8.96,1c4.17,0.72,5.78,1.37,6.8,2.79
			c0.77,1.07,0.96,2.25,1.01,3.03c-7.29,0.02-14.58,0.03-21.86,0.05c-0.37-0.62-0.75-1.23-1.12-1.85c-0.38,0.61-0.76,1.21-1.14,1.82
			c-0.95-0.12-1.9-0.25-2.85-0.37c-0.08-1.34-0.05-3.1,0.32-5.11c0.4-2.11,1.06-3.83,1.64-5.07
			C68.32,219.07,70.75,219.57,73.17,220.07z"/>
		<linearGradient id="SVGID_15_" gradientUnits="userSpaceOnUse" x1="80.6776" y1="48.9096" x2="71.9968" y2="118.3562">
			<stop  offset="0" style="stop-color:#80DEEA"/>
			<stop  offset="1" style="stop-color:#00ACC1"/>
		</linearGradient>
		<path class="st33" d="M91.29,109.33c-0.83,0.47-2,1.11-3.45,1.78c-2.91,1.36-7.05,3.3-10.29,3.38c-2.19,0.05-2.81,0.13-4.06,0.3
			c-1.25,0.17-1.88,0.32-2.75,0.48c-2.07,0.37-5.11,0.7-9.15,0.37c-0.03-0.21-0.07-0.43-0.1-0.64c-0.01-0.09-0.02-0.19-0.03-0.28
			c-0.2-1.51-0.19-2.92-0.07-4.2v-0.05c0.01-0.05,0.01-0.08,0.01-0.09c0.73-7.42,0.59-14.79,0.51-17.33
			c-0.01-0.26-0.02-0.52-0.03-0.78c0.01-0.05,0-0.1,0-0.15c-0.16-1.8-0.32-3.25-0.47-4.52c-0.03-0.25-0.07-0.5-0.09-0.74
			c-0.27-2.11-0.54-3.8-0.79-6c-0.01-0.14-0.03-0.28-0.05-0.43c-0.02-0.19-0.04-0.38-0.06-0.58l0.41-11.94l0.25-7.42
			c1-2.33,2.59-5.03,5.15-7.47c2.12-2.02,4.29-3.31,5.99-4.11c1.97,0.55,4.77,1.61,7.63,3.69c1.6,1.17,2.85,2.39,3.8,3.47
			c-0.18-0.53-0.37-1.06-0.59-1.61c-0.47-1.21-0.99-2.31-1.51-3.33c1.38,1.32,2.38,2.52,3.04,3.4c0,0,5.25,6.96,5.87,15.15
			c0.11,1.5,0.03,2.26-0.17,5.01c-0.03,0.34-0.05,0.7-0.08,1.11c0,0.19-0.01,0.38-0.02,0.57c-0.05,0.97-0.83,13.82-0.9,17.99
			C89.2,97.86,89.5,102.94,91.29,109.33z"/>
		<polygon class="st30" points="73.03,46.75 80.25,51.43 80.06,57.12 71.37,49.31 		"/>
		<path class="st34" d="M85.07,87.3c-9.57,11.02-12.77,15.23-13.78,16.92c-0.09,0.15-2.02,3.4-2.02,3.4
			c-0.34,0.52-0.78,1.09-1.39,1.74c-0.71,0.75-1.2,1.09-3.6,3.21c-0.94,0.82-1.88,1.65-2.79,2.43c-0.01-0.09-0.02-0.19-0.03-0.28
			c-0.12-1.08-0.19-2.46-0.07-4.11v-0.14c0.01-0.05,0.01-0.08,0.01-0.09c0.73-7.42,0.59-14.79,0.51-17.33
			c-0.01-0.26-0.02-0.52-0.03-0.78c0.01-0.05,0-0.1,0-0.15c-0.16-1.8-0.32-3.25-0.47-4.52c-0.03-0.25-0.07-0.5-0.09-0.74
			c-0.27-2.11-0.54-3.8-0.79-6c-0.01-0.14-0.03-0.28-0.05-0.43c-0.02-0.19-0.04-0.38-0.06-0.58l0.41-11.94
			c1.46,0.37,3.93,0.69,6.57-0.43c2.09-0.88,3.37-2.27,3.99-3.07c-5.21,5.84-5.22,14.27-0.72,19.25
			C74.06,87.44,79.72,88.83,85.07,87.3z"/>
		<path class="st26" d="M69.25,23.39c2.16-3.25,6.66-6.62,11.5-5.57c2.86,0.62,4.69,2.53,5.49,3.48c0.53,0,2.9,0.08,4.22,1.76
			c1.64,2.09,1.13,6-1.96,8.69c-0.95,0.2-3.16,0.52-5.68-0.42c-1.87-0.7-3.11-1.8-3.75-2.47c-0.8,0.64-2.18,1.92-3.05,4
			c-0.42,1.02-0.61,1.96-0.69,2.7c-0.06-0.61-0.13-1.22-0.19-1.82c-0.09-0.88-1.21-1.78-1.87-1.59c-0.63,0.18-0.77,1.32-0.8,1.5
			c-0.13,1.02,0.27,2.42,1.35,2.86c0.45,0.18,0.89,0.15,1.17,0.09c-0.01,0.58-0.08,1.29-0.27,2.08c-0.26,1.08-0.66,1.94-1,2.56
			c-0.71-0.87-1.42-1.73-2.13-2.6c-0.64-0.6-1.67-1.72-2.39-3.43c-0.66-1.55-0.79-2.94-0.8-3.79c-0.4,0.2-0.79,0.4-1.19,0.6
			C67.09,30.59,66.93,26.88,69.25,23.39z"/>
		
			<linearGradient id="SVGID_16_" gradientUnits="userSpaceOnUse" x1="556.1831" y1="117.1751" x2="574.8512" y2="206.8282" gradientTransform="matrix(-1 0 0 1 636.1677 0)">
			<stop  offset="0" style="stop-color:#3E4257"/>
			<stop  offset="1" style="stop-color:#22253D"/>
		</linearGradient>
		<path class="st35" d="M87.84,111.11c-1.7,16.76-3.41,33.51-5.11,50.27c-1.82,19.94-3.64,39.88-5.46,59.82
			c-4.63-0.54-9.26-1.09-13.89-1.63c1.01-20.04,2.03-40.08,3.04-60.12c-0.5-9.75-1.41-20.05-2.85-30.83
			c-0.62-4.66-1.32-9.2-2.07-13.62C70.27,113.7,79.06,112.41,87.84,111.11z"/>
		<path class="st26" d="M79.33,32.98c0.34-0.07,0.76-0.13,1.25-0.13c0.47,0,0.88,0.05,1.21,0.12c0.14,0,0.26-0.12,0.26-0.26
			c0-0.14-0.12-0.26-0.26-0.26c-0.33-0.06-0.74-0.11-1.22-0.11c-0.48,0-0.91,0.06-1.24,0.13c-0.14,0-0.26,0.12-0.26,0.26
			C79.07,32.86,79.19,32.98,79.33,32.98z"/>
		<path class="st26" d="M85.13,32.93c0.34-0.07,0.76-0.13,1.25-0.13c0.47,0,0.88,0.05,1.21,0.12c0.14,0,0.26-0.12,0.26-0.26
			c0-0.14-0.12-0.26-0.26-0.26c-0.33-0.06-0.74-0.11-1.22-0.11c-0.48,0-0.91,0.06-1.24,0.13c-0.14,0-0.26,0.12-0.26,0.26
			C84.88,32.81,84.99,32.93,85.13,32.93z"/>
		<path class="st26" d="M83.17,43.53c-0.38,0.01-0.69-0.16-0.81-0.23c-0.25-0.14-0.47-0.34-0.62-0.59
			c-0.04-0.07-0.02-0.16,0.05-0.21c0.07-0.04,0.16-0.02,0.21,0.05c0.09,0.14,0.25,0.34,0.51,0.49c0.14,0.08,0.55,0.3,0.97,0.13
			c0.28-0.11,0.43-0.35,0.49-0.48c0.04-0.07,0.13-0.1,0.2-0.07c0.07,0.04,0.1,0.13,0.07,0.2c-0.08,0.17-0.28,0.47-0.65,0.62
			C83.44,43.5,83.3,43.53,83.17,43.53z"/>
		
			<linearGradient id="SVGID_17_" gradientUnits="userSpaceOnUse" x1="-87.9702" y1="86.1404" x2="-102.4284" y2="60.5045" gradientTransform="matrix(-0.803 -0.596 -0.596 0.803 67.6557 -33.2457)">
			<stop  offset="0" style="stop-color:#FFAB91"/>
			<stop  offset="1" style="stop-color:#FFCCBC"/>
		</linearGradient>
		<path class="st36" d="M92.57,80.98c0.54,0.16,1.41,0.33,2.46,0.19c1.75-0.22,2.92-1.16,3.37-1.56l4.97-0.68
			c0,0-0.43,0.85-0.98,1.19c-0.55,0.35-1.52,0.24-1.52,0.24c1.13,0.32,2.26,0.63,3.39,0.95c1.59-0.63,3.18-1.26,4.77-1.9
			c0.36,0.1,0.71,0.2,1.07,0.31c-0.46,0.67-1.15,1.61-2.09,2.64c-1.48,1.62-2.23,2.43-3.3,2.96c-2.17,1.06-3.54,0.04-7.43,0.15
			c-1.4,0.04-3.22,0.24-5.35,0.85C92.14,84.55,92.36,82.76,92.57,80.98z"/>
		<path class="st30" d="M78.11,77.84c-3.03-5.27-4.33-9.78-4.94-13.03c-0.65-3.45-0.83-7.04-3.55-9.15
			c-1.5-1.16-3.24-1.46-4.49-1.53c-1.04,0.95-2.59,2.63-3.61,5.12c-1.46,3.57-0.99,6.76-0.7,8.65c1.45,9.76,10.89,19.82,12.25,21.24
			c3.29,0.45,7.06,0.78,11.24,0.8c4.12,0.02,7.85-0.26,11.1-0.67c-0.54-2.85-1.07-5.71-1.61-8.56
			C88.57,79.75,83.34,78.79,78.11,77.84z"/>
	</g>
	<g>
		<path class="st26" d="M340.92,53.62c0.29,0.47,0.69,0.96,1.06,1.91c0.7,1.78,0.61,3.49,0.42,4.67c6.9,0.14,13.81,0.28,20.71,0.42
			c0.69-1.29,1.44-2.93,2.02-4.89c0.77-2.61,1.02-4.92,1.06-6.69c0.32-2.05,1.16-9.03-3.22-15.03c-1.2-1.64-3.49-4.79-7.49-5.64
			c0,0-4.6-0.98-11.14,3.12c-0.5,0.32-1.68,1.33-1.83,1.48c-0.03,0.03-0.04,0.05-0.05,0.05c-0.1,0.1-0.18,0.21-0.27,0.32
			c-0.1,0.13-0.18,0.24-0.25,0.33c0.5,5.08-0.08,8.85-0.75,11.45C340.59,47.48,339.35,51.01,340.92,53.62z"/>
		<path class="st1" d="M344.47,62.24c0.89,12.58-0.45,22.44-2,29.42c-1.59,7.18-3.82,13.26-0.64,17.89
			c2.58,3.75,7.55,4.86,11.43,5.19c3.67-10.07,7.1-23.4,7.45-39.17c0.11-4.88-0.09-9.47-0.49-13.72
			C354.98,61.98,349.73,62.11,344.47,62.24z"/>
		<path class="st29" d="M361.39,61.86c-0.6,0.99-4.23,6.75-9.58,7.1c-0.46,0.03-1.49,0.09-2.74-0.29c-3.8-1.17-5.36-5.12-5.66-5.94
			c4.46-1.97,5.55-3.8,5.67-5.14c0.08-0.92-0.33-1.6-1.31-6.53c-0.07-0.37-0.15-0.74-0.22-1.11c0.67-0.23,1.35-0.47,2.02-0.7
			c1.91-0.66,2.87-1.04,3.91-1.36c0.71-0.22,1.78-0.5,3.15-0.71c-0.33,2.15-0.48,3.96-0.56,5.32c-0.28,4.88,0.27,6.1,1.01,6.82
			c0.58,0.57,1.25,0.82,1.72,0.95c0.03,0.11,0.37,1.23,1.43,1.57C360.73,62,361.17,61.92,361.39,61.86z"/>
		
			<linearGradient id="SVGID_18_" gradientUnits="userSpaceOnUse" x1="477.4605" y1="52.746" x2="485.2388" y2="52.746" gradientTransform="matrix(-1 0 0 1 833.0109 0)">
			<stop  offset="0" style="stop-color:#FFAB91"/>
			<stop  offset="1" style="stop-color:#FFCCBC"/>
		</linearGradient>
		<path class="st37" d="M355.32,49.56c0.97,2.15-1.28,4.94-2.73,6.19c-1.32,1.14-2.7,1.63-3.51,1.85c-0.43-2.18-0.87-4.35-1.31-6.53
			l1.8-1.81c1.3-0.45,2.6-0.91,3.91-1.36C354.7,48.45,355.14,49.17,355.32,49.56z"/>
		
			<linearGradient id="SVGID_19_" gradientUnits="userSpaceOnUse" x1="508.8937" y1="75.5185" x2="526.801" y2="75.5185" gradientTransform="matrix(-1 0 0 1 833.0109 0)">
			<stop  offset="0" style="stop-color:#FFAB91"/>
			<stop  offset="1" style="stop-color:#FFCCBC"/>
		</linearGradient>
		<path class="st38" d="M324.12,77.72c-1.58-2.07-3.16-4.13-4.74-6.2c-1.3-0.81-2.6-1.62-3.9-2.43c0.02,0.3,0.07,0.73,0.27,1.22
			c0.25,0.61,0.61,1.01,0.84,1.24c-1.37,0.41-2.73,0.83-4.1,1.24c-2.37-0.51-3.39-1.21-3.87-1.77c-0.15-0.18-0.62-0.76-1.43-1.05
			c-0.39-0.14-0.74-0.17-0.97-0.17c0.04,0.73,0.25,2.72,1.77,4.51c0.87,1.03,1.85,1.6,2.48,1.89c2.56,0.13,5.12,0.27,7.68,0.4
			c1.86,1.78,3.72,3.55,5.59,5.33C323.86,80.54,323.99,79.13,324.12,77.72z"/>
		<path class="st39" d="M341.92,63.42c-1.42,1.57-3.34,4.01-4.97,7.34c-0.2,0.42-0.94,1.95-2.11,5.47
			c-1.31,3.93-0.72,5.21-1.69,5.66c-0.58,0.27-1.31,0.11-2.89-0.8c-1.66-0.94-4.05-2.58-6.5-5.4l-4.48,4.75
			c0.95,2.25,2.52,5.4,5.09,8.73c3.18,4.12,6.51,8.43,10.02,8.08c3.73-0.37,7.17-5.94,8-13.52L341.92,63.42z"/>
		<path class="st29" d="M337.05,179.93c0.48,15.21,0.97,30.42,1.45,45.63l3.29-0.71c1.57-13.2,2.79-21.44,3.79-26.87
			c0.37-2.02,1.31-6.85,1.43-13.39c0.04-2.26-0.02-4.11-0.08-5.31C343.63,179.5,340.34,179.72,337.05,179.93z"/>
		<path class="st18" d="M338,221.36c-0.31,1.14-0.62,2.28-0.93,3.43c-0.57,0.23-1.51,0.58-2.72,0.85c-3.25,0.72-5,0.13-6.16,1.31
			c-0.38,0.38-0.84,1.1-0.86,2.54c4.19,0.02,8.38,0.05,12.56,0.07l0.75-2.31l0.6,2.31c0.56-0.07,1.13-0.13,1.69-0.2
			c0-0.98-0.05-2.02-0.15-3.13c-0.18-1.96-0.51-3.72-0.89-5.25C340.59,221.1,339.3,221.23,338,221.36z"/>
		<path class="st29" d="M351.98,179.71c1.8,13.88,3.6,27.77,5.4,41.65c1.25-0.03,2.5-0.06,3.75-0.09c0.56-8.58,0.75-15.8,0.8-21.35
			c0.01-1.54,0.05-7.45-0.17-15.24c-0.07-2.55-0.16-4.71-0.22-6.32C358.34,178.81,355.16,179.26,351.98,179.71z"/>
		<path class="st18" d="M357.38,221.36c-0.31,1.14-0.62,2.28-0.93,3.43c-0.52,0.67-1.32,1.49-2.5,1.93
			c-2.3,0.86-4.17-0.41-5.64,0.71c-0.42,0.32-0.91,0.92-1.13,2.12c4.03,0,8.06,0,12.09,0l0.75-2.31l0.6,2.31
			c0.56-0.07,1.13-0.13,1.69-0.2c0.01-0.95-0.03-2-0.15-3.13c-0.21-1.91-0.61-3.57-1.03-4.94
			C359.87,221.3,358.63,221.33,357.38,221.36z"/>
		
			<linearGradient id="SVGID_20_" gradientUnits="userSpaceOnUse" x1="482.4222" y1="120.3776" x2="485.117" y2="209.3074" gradientTransform="matrix(-1 0 0 1 833.0109 0)">
			<stop  offset="0" style="stop-color:#3E4257"/>
			<stop  offset="1" style="stop-color:#22253D"/>
		</linearGradient>
		<path class="st40" d="M338.17,109.23c-3.3,16.63-4.81,30.33-5.57,40.12c-0.99,12.63-1.82,32.79-1.8,32.49l0,0
			c3.01,1.43,9.45,3.98,17.9,3.51c8.87-0.49,15.23-4.05,18.04-5.85c-0.54-9.05-1.19-16.89-1.69-23.2
			c-0.97-12.24-2.19-25.76-3.18-30.9c-1.99-10.27-2.42-18.21-2.42-18.21L338.17,109.23z"/>
		<linearGradient id="SVGID_21_" gradientUnits="userSpaceOnUse" x1="359.1348" y1="42.6428" x2="360.815" y2="149.0527">
			<stop  offset="0" style="stop-color:#FFD54F"/>
			<stop  offset="1" style="stop-color:#FB8C00"/>
		</linearGradient>
		<path class="st41" d="M353.27,114.73c-0.47-17.41-0.78-29.03,2.58-44.16c0.98-4.4,2.01-7.97,2.75-10.32
			c0.58,0.1,1.43,0.26,2.47,0.47c0.96,0.19,1.44,0.29,1.81,0.38c0.88,0.22,2.15,0.65,3.64,1.62c-0.88,7.32-1.6,14.91-2.14,22.75
			c-0.2,2.91-0.37,5.79-0.51,8.63c-0.03,1.62-0.03,3.25-0.02,4.9c0.11,13.24,1.55,25.61,3.81,36.98c-1.09,1.07-3.41,3.05-6.92,3.81
			c-1.46,0.32-2.77,0.35-3.81,0.28c-0.57-2.01-1.31-4.84-1.96-8.27C353.65,124.81,353.4,119.28,353.27,114.73z"/>
		<linearGradient id="SVGID_22_" gradientUnits="userSpaceOnUse" x1="338.1886" y1="42.9736" x2="339.8687" y2="149.383">
			<stop  offset="0" style="stop-color:#FFD54F"/>
			<stop  offset="1" style="stop-color:#FB8C00"/>
		</linearGradient>
		<path class="st42" d="M336.52,105.43c0,0,0.76-18.18,0.76-18.18c0.01-0.45,0.02-1.12,0.07-2.06c0.12-2.52,0.47-6.78,1.6-11.86
			c0.91-4.1,2.04-7.46,2.98-9.92c0.85-0.39,1.7-0.79,2.55-1.18c0.25,4.37,0.49,8.74,0.74,13.12c-0.2,11.55-0.53,23.33-1.02,35.31
			c-0.36,8.93-0.8,17.74-1.3,26.42c-5.01,0.94-7.27-0.23-8.39-1.25C330.41,132.13,336.52,124.81,336.52,105.43z"/>
		<path class="st1" d="M383.76,122.71c-9.31,1.81-18.62,3.62-27.92,5.43c-1.12,4.84-2.12,11.58-1.61,19.57
			c0.69,10.8,3.84,19.24,6.29,24.48c9.13-2.17,18.27-4.34,27.4-6.51c-1.54-4.91-2.98-10.76-3.87-17.42
			C382.7,138.27,383,129.53,383.76,122.71z"/>
		
			<linearGradient id="SVGID_23_" gradientUnits="userSpaceOnUse" x1="461.6323" y1="106.5804" x2="460.9586" y2="125.1076" gradientTransform="matrix(-1 0 0 1 833.0109 0)">
			<stop  offset="0" style="stop-color:#FFAB91"/>
			<stop  offset="1" style="stop-color:#FFCCBC"/>
		</linearGradient>
		<path class="st43" d="M369.97,119.97c0.29-1.15,0.51-2.25,0.67-3.28c1.24,0.42,2.49,0.85,3.73,1.27c0.57,1.98,1.14,3.97,1.72,5.95
			c0.11,0.62,0.18,1.43,0.08,2.36c-0.2,1.82-0.95,3.16-1.43,3.88c-0.94,0.76-1.89,1.53-2.83,2.29c-0.07-0.11-0.18-0.27-0.27-0.48
			c-0.37-0.8-0.31-1.55-0.29-1.85c0.05-0.95,0.03-2.64-0.01-4.91c-0.33,0.06-0.73,0.13-1.09,0.19c-0.36,0.07-0.73,0.13-1.09,0.19
			c-0.4,0.07-0.8,0.14-1.2,0.21C368.67,124.16,369.4,122.21,369.97,119.97z"/>
		<path class="st39" d="M377.99,118.37c-0.06-2.38-0.63-7.28-2.32-17.09c-1.5-8.71-2.82-15.16-2.82-15.16
			c-0.5-2.98-1.15-6.14-1.97-9.45c-1.28-5.15-2.79-9.81-4.35-13.96c-2.27,4.06-3.13,7.54-3.5,9.86c-0.18,1.15-0.14,1.36,0.11,13.02
			c0.08,3.67,0.11,5.25,0.55,7.6c0.67,3.55,1.87,5.99,2.15,6.98c2.78,10.04,3.54,15.74,3.55,18.2H377.99z"/>
		<path class="st29" d="M348.12,32.52c-3.01,1.52-4.62,4.73-4.73,6.89c-0.02,0.38-0.02,1.25-0.09,3.13
			c-0.08,1.99-0.13,2.15-0.13,2.74c-0.01,0.83-0.08,4.95,2.67,7.92c0.7,0.76,1.08,1.17,1.78,1.4c2.41,0.8,5.25-1.72,7.17-3.49
			c0.85-0.78,1.51-1.59,2.02-2.35c0.23-0.42,0.47-0.84,0.7-1.27c0.83,0.04,1.36-0.17,1.66-0.34c2.25-1.24,2.26-5.62,1.61-8.24
			c0-0.01-0.01-0.02-0.01-0.02c-0.27-1.08-0.78-3.08-2.52-4.73C355.75,31.8,351.55,30.79,348.12,32.52z"/>
		<path class="st26" d="M346.72,41.48c-0.37-0.09-0.84-0.17-1.39-0.18c-0.52-0.02-0.98,0.03-1.34,0.09
			c-0.16-0.01-0.28-0.14-0.28-0.29c0.01-0.16,0.14-0.28,0.29-0.28c0.37-0.06,0.83-0.1,1.35-0.09c0.54,0.02,1,0.09,1.38,0.18
			c0.16,0.01,0.28,0.14,0.28,0.29C347.01,41.36,346.88,41.49,346.72,41.48z"/>
		<path class="st26" d="M341.71,32.67c2.86-4.66,8.9-4.27,9.85-4.21c1,0.06,3.77,0.28,6.19,2.34c0.98,0.84,1.61,1.73,1.99,2.37
			c0.74,2.13,1.48,4.25,2.23,6.38c-0.17,2.64-0.02,4.74,0.21,6.31L359.28,50c-0.55,0.12-1.39,0.21-2.11-0.21
			c-1.64-0.96-1.2-3.69-1.95-7.01c-0.34-1.53-1.06-3.72-2.73-6.23c0.01,0.46-0.06,1.14-0.5,1.7c-1.12,1.43-3.47,0.53-6.09,1.38
			c-1.09,0.36-2.56,1.13-4.03,2.97C340.02,39.42,339.92,35.59,341.71,32.67z"/>
		<path class="st32" d="M347.3,45.2c-0.67,0.69-0.91,1.37-1,1.74c-0.11,0.42-0.21,0.83,0.01,1.18c0.24,0.37,0.79,0.53,1.4,0.43
			c-0.09-0.33-0.18-0.69-0.25-1.07C347.31,46.63,347.28,45.85,347.3,45.2z"/>
		<path class="st26" d="M345.25,46.99l-0.03,0c-0.36-0.01-0.65-0.31-0.64-0.67l0.04-1.06c0.01-0.36,0.32-0.64,0.68-0.62l0.03,0
			c0.36,0.01,0.65,0.31,0.64,0.67l-0.04,1.06C345.92,46.72,345.61,47,345.25,46.99z"/>
		<path class="st26" d="M350.51,45.3l-0.03,0c-0.36-0.01-0.65-0.32-0.64-0.68l0.04-1.08c0.01-0.36,0.32-0.65,0.68-0.64l0.03,0
			c0.36,0.01,0.65,0.32,0.64,0.68l-0.04,1.08C351.17,45.03,350.87,45.32,350.51,45.3z"/>
		<path class="st26" d="M352.25,41.66c-0.37-0.09-0.84-0.17-1.39-0.18c-0.52-0.02-0.98,0.03-1.34,0.09
			c-0.16-0.01-0.28-0.14-0.28-0.29c0.01-0.16,0.14-0.28,0.29-0.28c0.37-0.06,0.83-0.1,1.35-0.09c0.54,0.02,1,0.09,1.38,0.18
			c0.16,0.01,0.28,0.14,0.28,0.29C352.54,41.54,352.41,41.67,352.25,41.66z"/>
		<path class="st44" d="M350.61,50.18l-0.01,0.39c0,0.01,0,0.01,0,0.01c-0.02,0.51-0.21,0.97-0.52,1.33
			c-0.1,0.13-0.22,0.24-0.36,0.35c-0.39,0.29-0.88,0.46-1.4,0.44c-0.53-0.02-1-0.22-1.37-0.53c-0.14-0.12-0.26-0.26-0.37-0.42
			c-0.26-0.37-0.4-0.83-0.39-1.32c0-0.01,0-0.01,0-0.01l0.01-0.39L350.61,50.18z"/>
		<path class="st1" d="M350.61,50.18l-0.01,0.39c0,0.01,0,0.01,0,0.01l-4.41-0.14c0-0.01,0-0.01,0-0.01l0.01-0.39L350.61,50.18z"/>
		<path class="st45" d="M350.08,51.91c-0.1,0.13-0.22,0.24-0.36,0.35c-0.39,0.29-0.88,0.46-1.4,0.44c-0.53-0.02-1-0.22-1.37-0.53
			c-0.14-0.12-0.26-0.26-0.37-0.42c0.03-0.03,0.05-0.06,0.08-0.08c0.27-0.25,0.63-0.4,1.03-0.39l1.28,0.04
			C349.43,51.34,349.83,51.57,350.08,51.91z"/>
		<path class="st17" d="M361.43,136.6c-0.05-0.26,0.12-0.5,0.38-0.55l17.68-3.2c0.26-0.04,0.5,0.12,0.55,0.38
			c0.05,0.26-0.12,0.5-0.38,0.55l-17.68,3.2c-0.03,0-0.06,0.01-0.08,0.01C361.67,136.98,361.47,136.82,361.43,136.6z M358.27,144.31
			c0.03,0,0.06,0,0.09-0.01l21.92-4.02c0.26-0.05,0.43-0.29,0.38-0.55c-0.05-0.26-0.29-0.42-0.55-0.38l-21.92,4.02
			c-0.26,0.05-0.43,0.29-0.38,0.55C357.85,144.15,358.05,144.31,358.27,144.31z M358.05,146.78c0.03,0,0.06,0,0.09-0.01l21.92-4.02
			c0.26-0.05,0.43-0.29,0.38-0.55c-0.05-0.26-0.29-0.42-0.55-0.38l-21.92,4.02c-0.26,0.05-0.43,0.29-0.38,0.55
			C357.63,146.62,357.83,146.78,358.05,146.78z M358.05,149.57c0.03,0,0.06,0,0.09-0.01l21.92-4.02c0.26-0.05,0.43-0.29,0.38-0.55
			c-0.05-0.26-0.29-0.42-0.55-0.38l-21.92,4.02c-0.26,0.05-0.43,0.29-0.38,0.55C357.63,149.41,357.83,149.57,358.05,149.57z
			 M358.27,152.27c0.03,0,0.06,0,0.09-0.01l21.92-4.02c0.26-0.05,0.43-0.29,0.38-0.55c-0.05-0.26-0.29-0.42-0.55-0.38l-21.92,4.02
			c-0.26,0.05-0.43,0.29-0.38,0.55C357.85,152.11,358.05,152.27,358.27,152.27z M358.96,155.01c0.03,0,0.06,0,0.09-0.01l21.92-4.02
			c0.26-0.05,0.43-0.29,0.38-0.55c-0.05-0.26-0.29-0.42-0.55-0.38l-21.92,4.02c-0.26,0.05-0.43,0.29-0.38,0.55
			C358.53,154.85,358.73,155.01,358.96,155.01z M365.62,156.58c0.03,0,0.06,0,0.09-0.01l15.89-3.13c0.26-0.05,0.42-0.3,0.37-0.55
			c-0.05-0.26-0.29-0.43-0.56-0.37l-15.89,3.13c-0.26,0.05-0.42,0.3-0.37,0.55C365.2,156.42,365.4,156.58,365.62,156.58z"/>
	</g>
</g>
</svg>
