<svg xmlns="http://www.w3.org/2000/svg" xmlns:xlink="http://www.w3.org/1999/xlink" viewBox="0 0 47.22 60.18"><defs><style>.cls-1{fill:url(#linear-gradient);}.cls-2{fill:url(#linear-gradient-2);}</style><linearGradient id="linear-gradient" x1="-4.41" y1="48.57" x2="190.2" y2="-24.35" gradientTransform="matrix(1, 0, 0, -1, 0, 53.52)" gradientUnits="userSpaceOnUse"><stop offset="0" stop-color="#5540ee"/><stop offset="1" stop-color="#9640ed"/></linearGradient><linearGradient id="linear-gradient-2" x1="-13.04" y1="25.53" x2="181.56" y2="-47.4" xlink:href="#linear-gradient"/></defs><title>Asset 1</title><g id="Layer_2" data-name="Layer 2"><g id="Layer_1-2" data-name="Layer 1"><path class="cls-1" d="M10.35,18a16.16,16.16,0,0,1,7.15-5.55,17.53,17.53,0,0,1,6.56-1.26c4.63,0,11.87,2.44,17.84,6l5-10.86A39.92,39.92,0,0,0,25.34,0C12,0,3.37,6.9,3.37,17.51c0,5,1.68,8.33,4.21,10.77C6.39,23.74,9.76,18.86,10.35,18Z"/><path class="cls-2" d="M28.62,24.33c-4.46-1.34-8.5-2.61-10.35-5l-.36.39a9.13,9.13,0,0,0-2.17,3.23A12.91,12.91,0,0,0,15,26.76c.08,4.46,1.6,6.23,4.63,7.58l2,.5h0c6.22,1.85,11.59,3.45,11.59,8.33,0,3.71-2.95,5.89-7.91,5.89-6.14,0-14.56-3.62-20.28-8.67L0,51a40.19,40.19,0,0,0,25.17,9.18c13.38,0,22.05-7,22.05-17.76,0-12.37-9.85-15.4-18.6-18Z"/></g></g></svg>